<svg width="68" height="28" viewBox="0 0 68 28" fill="none" xmlns="http://www.w3.org/2000/svg">
<path d="M25.2778 1H21.8164V1.46307C21.8164 2.72047 20.7967 3.7401 19.5393 3.7401H16.9462V6.96107H21.8163L24.1031 6.96017V7.25315C22.8474 7.25315 21.8278 8.26576 21.8164 9.51871V24.1844H16.9462V27.4063H29.8051V24.1844H25.2778V1Z" fill="white"/>
<path d="M9.20246 1.02H5.74105V1.48306C5.74105 2.74046 4.72141 3.7601 3.46401 3.7601H0.87085V6.98107H5.74096L8.02779 6.9802V7.27317C6.77161 7.27317 5.75162 8.28664 5.74105 9.54033V24.2044H0.87085V27.4263H13.7298V24.2044H9.20246V1.02Z" fill="white"/>
<path fill-rule="evenodd" clip-rule="evenodd" d="M48.7944 22.6884C49.936 20.7364 50.538 18.3026 50.538 15.632V15.2909H47.2582V15.632C47.2582 17.1111 47.0267 18.5128 46.5859 19.7274L37.0708 6.96466H47.8273V3.74101H35.2346C33.9931 3.76251 32.9932 4.77588 32.9932 6.0225C32.9932 6.55202 33.1736 7.0394 33.4762 7.42654L36.8339 11.9497C33.1303 13.4075 31.018 16.2491 31.018 19.804C31.018 23.6991 34.0493 27.8382 39.6675 27.8382C42.4089 27.8382 44.8297 26.9632 46.697 25.3048L46.6962 25.3038C46.6866 25.3123 46.702 25.2969 46.737 25.2618C46.9334 25.0652 47.7477 24.25 48.2457 23.5593L48.471 23.8638C47.5822 24.8534 47.5086 26.3005 48.2267 27.3633L48.2494 27.3938H52.3154L48.7961 22.6893L48.7944 22.6884ZM44.7603 22.6795C43.4219 24.0161 41.7095 24.6938 39.6657 24.6938C36.7618 24.6938 34.3984 22.439 34.3984 19.666C34.3984 17.8477 35.5654 15.47 38.8355 14.6494C39.5096 14.4588 40.3069 14.2961 41.2536 14.1626L41.4334 14.4048C40.6409 14.5453 39.9904 15.0886 39.7058 15.8212L44.7603 22.6795Z" fill="white"/>
<path d="M62.6017 1H59.1403V1.46307C59.1403 2.72047 58.1207 3.7401 56.8633 3.7401H54.2701V6.96107H59.1402L61.4271 6.96017V7.25315C60.1705 7.25315 59.1502 8.26732 59.1403 9.52161V24.1844H54.2701V27.4063H67.1291V24.1844H62.6017V1Z" fill="white"/>
</svg>
