<svg width="82" height="28" viewBox="0 0 82 28" fill="none" xmlns="http://www.w3.org/2000/svg">
<path d="M37.1844 18.7269C37.5474 18.7329 37.8329 18.842 38.0399 19.055C38.2456 19.2679 38.3532 19.5697 38.3612 19.9613C38.771 19.6464 39.1323 19.4 39.4423 19.223C39.7523 19.046 40.0489 18.9163 40.3299 18.8363C40.4698 18.7964 40.6148 18.7711 40.7616 18.7591C40.9085 18.7481 41.0588 18.7435 41.2128 18.7455C41.7016 18.7525 42.103 18.8673 42.4139 19.0882C42.7259 19.3102 42.9339 19.6247 43.0399 20.0316C43.3508 19.7847 43.6514 19.5793 43.9403 19.4164C44.2293 19.2524 44.5147 19.1246 44.7967 19.0306C44.9936 18.9627 45.1935 18.9142 45.3964 18.8812C45.5993 18.8502 45.8065 18.8352 46.0165 18.8382C46.5755 18.8472 47.0317 19.0077 47.3837 19.3207C47.7356 19.6336 47.9073 20.0358 47.9003 20.5248C47.8993 20.5947 47.8946 20.661 47.8866 20.724C47.8786 20.7868 47.8749 20.8468 47.8739 20.9017L47.8514 20.9964L47.828 21.0892L47.2215 23.7669L47.2108 23.8089L47.1991 23.8509C47.1841 23.9348 47.1682 24.018 47.1532 24.1019C47.1383 24.1856 47.1308 24.2484 47.1307 24.2904C47.1277 24.4713 47.1847 24.6263 47.3016 24.7533C47.4186 24.8813 47.5614 24.9465 47.7284 24.9496L47.8231 24.9505L47.9383 24.932L48.0331 24.9125L48.1288 24.8714C48.2416 24.8315 48.3398 24.7978 48.4237 24.7718C48.5086 24.7449 48.5787 24.7318 48.6346 24.7318C48.7185 24.7338 48.7915 24.7694 48.8534 24.8402C48.9153 24.9111 48.9441 24.9963 48.9432 25.0931C48.9262 25.2471 48.8545 25.4178 48.7255 25.6048C48.5975 25.7917 48.4125 25.9804 48.1717 26.1722L48.0331 26.2865C47.9842 26.3204 47.9307 26.3589 47.8749 26.3998C47.6059 26.5918 47.3242 26.7447 47.0282 26.8587C46.7324 26.9736 46.4307 27.0568 46.1229 27.1078C46.0109 27.1198 45.898 27.1319 45.786 27.1449C45.6732 27.1568 45.5619 27.1625 45.4501 27.1605C44.8622 27.1514 44.3863 26.9863 44.0204 26.6664C43.6546 26.3465 43.4754 25.9347 43.4833 25.432L43.495 25.2943C43.5019 25.2465 43.5076 25.1938 43.5087 25.138L43.5409 25.0648L43.5526 24.9916L44.0887 22.8177C44.1177 22.7488 44.1364 22.6787 44.1444 22.6087C44.1524 22.5387 44.1561 22.4753 44.1571 22.4193C44.16 22.1964 44.1144 22.0301 44.0184 21.9242C43.9215 21.8184 43.7755 21.7632 43.5809 21.7601C43.3149 21.7561 43.0967 21.8588 42.9256 22.0658C42.7537 22.2728 42.6081 22.6208 42.4891 23.1078L41.9501 25.471C41.8451 25.9457 41.6574 26.3024 41.3885 26.5423C41.1196 26.7843 40.7817 26.9018 40.3768 26.8958L39.495 26.8812C39.3553 26.8792 39.2326 26.8811 39.1278 26.8871C39.0238 26.8931 38.9211 26.9154 38.8221 26.9554C38.7102 26.9964 38.6009 27.0533 38.494 27.1283C38.3881 27.2042 38.2647 27.2967 38.1239 27.4066L39.2215 22.7445L39.2557 22.6185L39.2674 22.4935L39.2909 22.3568C39.2919 22.3089 39.2928 22.2498 39.2938 22.1791C39.2958 22.0251 39.2482 21.8982 39.1522 21.7982C39.0553 21.6994 38.9301 21.6488 38.7762 21.6468C38.5113 21.6429 38.2854 21.7511 38.1005 21.972C37.9156 22.194 37.7624 22.5477 37.6434 23.0355L37.0839 25.3978C36.9639 25.9277 36.7763 26.2991 36.5214 26.5121C36.2664 26.7259 35.8874 26.8276 35.3837 26.8197L34.6913 26.8099C34.5094 26.8069 34.3553 26.8078 34.2294 26.8138C34.1035 26.8178 33.9848 26.8478 33.8719 26.9027C33.7879 26.9427 33.6955 26.9978 33.5965 27.0658C33.4992 27.1336 33.3879 27.2201 33.2626 27.3275L34.6893 21.3548L34.7128 21.2289L34.7342 21.1244C34.7502 21.0404 34.7614 20.9564 34.7704 20.8724C34.7784 20.7895 34.7821 20.7184 34.7831 20.6634C34.7861 20.4535 34.7571 20.2958 34.6962 20.1898C34.6352 20.0839 34.5146 19.9877 34.3339 19.9007C34.5748 19.7088 34.8118 19.538 35.0448 19.388C35.2777 19.2371 35.5204 19.1148 35.7733 19.0208C36.0132 18.9129 36.2512 18.8354 36.4901 18.7904C36.7281 18.7444 36.9594 18.7239 37.1844 18.7269Z" fill="black"/>
<path d="M33.2567 27.3548V27.3333C33.2588 27.3316 33.2605 27.3293 33.2626 27.3275L33.2567 27.3548Z" fill="black"/>
<path fill-rule="evenodd" clip-rule="evenodd" d="M54.91 18.973C55.708 18.984 56.3581 19.1986 56.8631 19.6126C57.3671 20.0276 57.6144 20.5575 57.6044 21.2035C57.5923 22.0023 57.1594 22.6733 56.3055 23.2152C55.4505 23.7572 54.3582 24.0519 53.0292 24.1029L53.0272 24.2083C53.0233 24.4751 53.1214 24.6899 53.3221 24.8539C53.5221 25.0189 53.7768 25.1038 54.0848 25.1078C54.2518 25.1097 54.4489 25.0893 54.6727 25.0433C54.8976 24.9983 55.1216 24.9283 55.3475 24.8333C55.4315 24.8074 55.5155 24.7765 55.6005 24.7425C55.6844 24.7095 55.7694 24.6722 55.8534 24.6312L55.9178 24.6009L55.9598 24.5697C55.9879 24.5567 56.0476 24.5248 56.1395 24.4779C56.2306 24.4308 56.4677 24.2908 56.8485 24.0589C56.9044 24.031 56.9615 24.0086 57.0174 23.9876C57.0734 23.9676 57.1294 23.9509 57.1864 23.9369L57.2704 23.9183L57.3544 23.9193C57.4942 23.9213 57.6081 23.9653 57.6981 24.0501C57.7881 24.1351 57.8319 24.2555 57.8299 24.4095C57.8269 24.6334 57.7242 24.8761 57.5243 25.139C57.3243 25.401 57.0406 25.6772 56.6727 25.9652C56.0507 26.4322 55.4192 26.7819 54.7792 27.0179C54.1392 27.2519 53.4973 27.3648 52.8544 27.3548C51.7915 27.3388 50.9256 27.0113 50.2567 26.3705C49.5877 25.7295 49.2613 24.8963 49.2762 23.8734C49.2962 22.5414 49.8709 21.3866 50.9969 20.4076C52.1238 19.4297 53.4282 18.9501 54.91 18.973ZM54.5262 20.8128C54.2603 20.8089 54.0129 20.9311 53.786 21.18C53.5581 21.428 53.3854 21.7752 53.2674 22.221C53.8414 22.145 54.2669 22.0332 54.5419 21.8832C54.8167 21.7342 54.9558 21.54 54.9598 21.3021C54.9618 21.1633 54.9216 21.0464 54.8387 20.9544C54.7567 20.8624 54.6522 20.8148 54.5262 20.8128Z" fill="black"/>
<path d="M31.0174 18.6537C31.3803 18.6587 31.666 18.7512 31.8729 18.9291C32.0798 19.108 32.1881 19.3498 32.1971 19.6576C32.1961 19.7276 32.1952 19.8023 32.1942 19.8783C32.1932 19.9552 32.1782 20.0291 32.1493 20.098L31.3856 23.4232L31.3739 23.5072L31.3407 23.5902C31.3257 23.6601 31.3145 23.7303 31.3075 23.7992C31.2985 23.8691 31.2938 23.9252 31.2928 23.9671C31.2899 24.1911 31.343 24.3703 31.453 24.5042C31.563 24.6391 31.7161 24.7082 31.912 24.7113L31.9852 24.7123L32.037 24.7132L32.1737 24.6732L32.2899 24.6332C32.4169 24.5782 32.5261 24.5381 32.618 24.5111C32.7088 24.4851 32.7818 24.4721 32.8378 24.473C32.9077 24.474 32.9741 24.5058 33.036 24.5707C33.098 24.6337 33.1288 24.7223 33.1268 24.8343C33.1247 24.9602 33.0809 25.0994 32.995 25.2523C32.908 25.4052 32.7941 25.5565 32.6522 25.7083C32.5673 25.7773 32.4823 25.8492 32.3973 25.9251C32.3124 26.0001 32.2134 26.073 32.1005 26.14C31.9455 26.236 31.7859 26.3236 31.6239 26.4056C31.4609 26.4876 31.3033 26.5622 31.1483 26.6302C30.8813 26.7242 30.621 26.796 30.369 26.849C30.1161 26.901 29.8781 26.9252 29.6542 26.9222C29.0812 26.9132 28.611 26.7491 28.245 26.4281C27.879 26.1081 27.6999 25.6967 27.7079 25.1927C27.7089 25.1368 27.7136 25.0779 27.7215 25.015C27.7295 24.952 27.7332 24.8858 27.7342 24.8158L27.7674 24.722L27.7792 24.6283L28.5653 21.2191C28.5953 21.0801 28.6177 20.9579 28.6327 20.8529C28.6487 20.748 28.657 20.6471 28.659 20.5492C28.661 20.3962 28.6247 20.259 28.5497 20.138C28.4747 20.0191 28.3598 19.9154 28.2079 19.8294C28.7039 19.4314 29.1871 19.1338 29.659 18.9378C30.13 18.7418 30.5834 18.6477 31.0174 18.6537Z" fill="black"/>
<path d="M25.8055 16.3314C25.9595 16.3334 26.0846 16.3811 26.1805 16.473C26.2775 16.566 26.3176 16.6826 26.3016 16.8216C26.3006 16.8915 26.2884 16.9683 26.2665 17.0511C26.2445 17.1351 26.2118 17.2332 26.1678 17.3441C26.1538 17.3851 26.1351 17.4346 26.1131 17.4906C26.0912 17.5464 26.0734 17.6017 26.0585 17.6576L26.0145 17.7933L25.9706 17.9281C25.9266 18.0821 25.8855 18.2313 25.8485 18.3783C25.8105 18.5241 25.7844 18.639 25.7694 18.723L26.7762 18.7386C26.9862 18.7416 27.1429 18.7892 27.2469 18.8812C27.3508 18.9742 27.4003 19.1114 27.3973 19.2933C27.3903 19.7963 27.3007 20.1695 27.1298 20.4115C26.9578 20.6544 26.6965 20.772 26.3475 20.766L25.2567 20.7503L25.2235 20.8441L25.2118 20.9183C25.1978 20.9733 25.1744 21.0574 25.1454 21.1683C25.1154 21.2804 25.0556 21.5382 24.9657 21.9417C24.9507 22.0257 24.9208 22.1554 24.8758 22.3294C24.8319 22.5034 24.7796 22.7097 24.7196 22.9466C24.6757 23.0994 24.642 23.2491 24.619 23.3949C24.596 23.5418 24.5829 23.6771 24.5809 23.8031C24.5769 24.0699 24.6546 24.2799 24.8124 24.4359C24.9714 24.5929 25.2046 24.6741 25.5126 24.6781C25.6236 24.6791 25.7467 24.6642 25.8807 24.6312C26.0137 24.5982 26.1715 24.5478 26.3544 24.4808C26.4524 24.4398 26.5448 24.41 26.6288 24.39C26.7127 24.371 26.7828 24.3616 26.8387 24.3626C26.9367 24.3637 27.017 24.3963 27.079 24.4603C27.1408 24.5242 27.1707 24.6122 27.1698 24.724C27.1668 24.878 27.0978 25.0487 26.9618 25.2357C26.8268 25.4226 26.6232 25.6187 26.3553 25.8236L26.2274 25.9164C26.1855 25.9512 26.1357 25.9812 26.0799 26.0091C25.783 26.2141 25.4517 26.3802 25.0868 26.5082C24.7209 26.6351 24.3559 26.7172 23.9921 26.7542C23.8931 26.7652 23.7988 26.7756 23.7079 26.7806C23.6169 26.7866 23.5217 26.7884 23.4237 26.7875C22.7107 26.7765 22.1193 26.5712 21.6493 26.1732C21.1804 25.7742 20.9499 25.2741 20.9589 24.6732C20.9599 24.6162 20.9608 24.5602 20.9618 24.5052C20.9628 24.4492 20.9637 24.3932 20.9637 24.3373C20.9947 24.1413 21.0507 23.9053 21.1327 23.6263C21.2127 23.3473 21.3778 22.8529 21.6268 22.1429C21.6848 21.9631 21.7324 21.8089 21.7694 21.6839C21.8064 21.558 21.8465 21.4329 21.8905 21.308C21.9055 21.253 21.9204 21.1969 21.9354 21.141C21.9494 21.0861 21.9654 21.0233 21.9794 20.9535L21.993 20.8275L22.0253 20.7025C21.7744 20.6705 21.5905 20.5967 21.4735 20.4837C21.3557 20.3697 21.2996 20.2007 21.3026 19.9769L21.3143 19.8626L21.327 19.7474C21.386 19.5664 21.539 19.3556 21.788 19.1146C22.0359 18.8736 22.4857 18.4855 23.1376 17.9496C23.8175 17.3856 24.3754 16.9742 24.8133 16.7152C25.2503 16.4562 25.5815 16.3284 25.8055 16.3314Z" fill="black"/>
<path d="M62.3671 6.8187C62.7009 6.82377 62.9782 6.92739 63.1981 7.12632C63.4169 7.32526 63.5234 7.57828 63.5184 7.88511C63.5174 7.94011 63.5127 8.00637 63.5047 8.08237C63.4958 8.1582 63.477 8.25102 63.4471 8.36167L62.8133 11.055C62.7834 11.1519 62.7619 11.2379 62.7469 11.3138C62.7309 11.3898 62.7225 11.4551 62.7215 11.5111C62.7045 11.6631 62.7549 11.8003 62.8719 11.9203C62.9878 12.039 63.1225 12.0998 63.2753 12.1029C63.5541 12.1079 63.7856 12.0154 63.9706 11.8246C64.1546 11.6336 64.3001 11.3229 64.4061 10.8949L64.788 9.38218L64.8329 9.19468C64.8478 9.12598 64.8601 9.05732 64.868 8.98862C64.876 8.91989 64.8807 8.86358 64.8817 8.82163C64.8837 8.68263 64.8688 8.57067 64.8358 8.48667C64.8018 8.40378 64.7438 8.31862 64.663 8.23374L64.5692 8.14878L64.4559 8.06382C64.9367 7.684 65.4016 7.40114 65.8514 7.21518C66.3004 7.02818 66.7267 6.93863 67.1317 6.94663C67.4937 6.95264 67.7848 7.04503 68.0038 7.22202C68.2238 7.40102 68.3385 7.64354 68.3465 7.95054C68.3455 8.0344 68.3436 8.11767 68.3426 8.20054C68.3406 8.28341 68.3257 8.36669 68.2958 8.44956L66.9823 14.0726C66.6192 15.6554 65.8962 16.9066 64.8143 17.8285C63.7314 18.7493 62.4513 19.1972 60.9745 19.1712C60.1107 19.1552 59.4248 18.9443 58.9169 18.5384C58.408 18.1325 58.1599 17.6004 58.1717 16.9466C58.1777 16.5708 58.2497 16.2505 58.3876 15.9886C58.5246 15.7266 58.7689 15.4794 59.1219 15.2494C59.1929 15.1944 59.2666 15.1468 59.3436 15.1058C59.4206 15.0658 59.5018 15.0182 59.5868 14.9642C59.6768 15.3842 59.8559 15.7042 60.1239 15.9251C60.3918 16.146 60.7335 16.2599 61.1522 16.2669C61.7091 16.2779 62.2074 16.081 62.6464 15.6771C63.0854 15.2741 63.4165 14.7191 63.6385 14.0121C63.1877 14.2969 62.7901 14.5163 62.4462 14.6712C62.1023 14.8242 61.769 14.9204 61.4481 14.9564C61.3501 14.9684 61.2586 14.9758 61.1756 14.9818C61.0917 14.9878 61.0077 14.9896 60.9247 14.9886C60.3387 14.9786 59.8751 14.8087 59.5331 14.4837C59.1901 14.1578 59.0241 13.7173 59.034 13.1615C59.035 13.0925 59.0397 13.0047 59.0487 12.9007C59.0577 12.797 59.0764 12.6892 59.1063 12.5785L59.12 12.4544L59.1522 12.3294L59.8758 9.29722L59.8983 9.21519L59.9208 9.13218C59.9218 9.07627 59.9265 9.01732 59.9344 8.95444C59.9424 8.89246 59.9471 8.84019 59.9481 8.79819C59.9501 8.71531 59.9435 8.64238 59.9305 8.57944C59.9175 8.51649 59.8989 8.45016 59.8719 8.38022C59.845 8.32335 59.8009 8.26437 59.7391 8.20054C59.6781 8.13654 59.5913 8.06193 59.4813 7.97593C59.9472 7.63703 60.3635 7.38139 60.7284 7.2064C61.0944 7.0324 61.4461 6.91295 61.7811 6.84995C61.879 6.83798 61.9772 6.82955 62.0741 6.82456C62.172 6.81957 62.2692 6.8167 62.3671 6.8187Z" fill="black"/>
<path d="M31.4335 14.7162C31.9223 14.7232 32.3115 14.8595 32.6024 15.1214C32.8911 15.3854 33.0332 15.7261 33.0272 16.1458C33.0192 16.6208 32.7748 17.0444 32.2938 17.4144C31.8129 17.7852 31.2576 17.9664 30.6278 17.9564C30.1949 17.9493 29.844 17.8178 29.5751 17.5619C29.3062 17.3059 29.1746 16.983 29.1805 16.5912C29.1885 16.0742 29.4152 15.6301 29.8612 15.2591C30.3072 14.8881 30.8315 14.7072 31.4335 14.7162Z" fill="black"/>
<path d="M49.5477 15.223V15.2015C49.5498 15.2 49.5515 15.1981 49.5536 15.1966L49.5477 15.223Z" fill="black"/>
<path d="M53.4003 6.69956C53.7623 6.70556 54.0505 6.79793 54.2635 6.97593C54.4755 7.15493 54.5791 7.39747 54.5741 7.70347L54.5721 7.78745C54.5711 7.84338 54.5637 7.91545 54.5477 8.0062C54.5317 8.09622 54.5084 8.24556 54.4774 8.45444C54.7884 8.16748 55.0113 7.96498 55.1464 7.84897C55.2803 7.73397 55.3979 7.63408 55.4969 7.55308L55.5389 7.53159L55.6239 7.4603L55.7294 7.38901C55.8703 7.29408 56.0253 7.20627 56.1942 7.12632C56.3631 7.04536 56.5312 6.98563 56.6991 6.94663C56.8391 6.90763 56.9725 6.87772 57.0985 6.85972C57.2233 6.84075 57.3421 6.83333 57.453 6.8353C57.927 6.8433 58.3048 6.9898 58.5858 7.2728C58.8657 7.55669 59.0019 7.92177 58.994 8.36753C58.982 9.00853 58.7535 9.56643 58.3055 10.0384C57.8586 10.5113 57.3491 10.7428 56.7772 10.7318C56.4564 10.7257 56.1735 10.6202 55.9266 10.4144C55.6797 10.2075 55.5575 9.97222 55.5624 9.70737L55.5751 9.57065C55.5831 9.5227 55.5943 9.46377 55.6092 9.3939C55.0743 9.69089 54.6498 10.0744 54.3358 10.5423C54.0209 11.0112 53.7642 11.6327 53.5702 12.4095L53.3661 13.264C53.2461 13.749 53.0446 14.1195 52.7616 14.3714C52.4776 14.6243 52.1343 14.7466 51.7303 14.7396L50.9159 14.725C50.7899 14.723 50.6704 14.7266 50.5594 14.7396C50.4474 14.7506 50.342 14.7777 50.244 14.8177C50.1321 14.8567 50.019 14.9082 49.9071 14.9681C49.7961 15.028 49.678 15.1039 49.5536 15.1966L50.951 9.2064C50.965 9.15154 50.9772 9.09625 50.9852 9.0394C50.9932 8.98453 50.9988 8.92927 50.9999 8.87241C51.0139 8.83141 51.0213 8.7829 51.0223 8.7269C51.0233 8.67093 51.0243 8.6159 51.0253 8.55893C51.0273 8.41996 51.0124 8.30796 50.9794 8.22397C50.9454 8.14 50.88 8.06156 50.784 7.99058L50.702 7.91636L50.5995 7.84116C50.8114 7.66422 51.0513 7.4971 51.3192 7.34214C51.5862 7.18614 51.8605 7.05558 52.1415 6.94858C52.3654 6.86861 52.5866 6.80705 52.8036 6.76206C53.0195 6.71709 53.2193 6.69558 53.4003 6.69956Z" fill="black"/>
<path d="M40.7489 15.0667V15.0453C40.7509 15.0437 40.7527 15.0419 40.7548 15.0404L40.7489 15.0667Z" fill="black"/>
<path d="M44.6024 6.54233C44.9641 6.54837 45.2518 6.64187 45.4647 6.81968C45.6766 6.99758 45.7811 7.23949 45.7762 7.54526L45.7743 7.63022C45.7732 7.68616 45.7648 7.75923 45.7489 7.84897C45.7329 7.94 45.7105 8.08939 45.6796 8.29819C45.9906 8.01019 46.2135 7.80872 46.3485 7.69272C46.4824 7.57683 46.5992 7.47779 46.6981 7.39585L46.7401 7.37534L46.8251 7.30405L46.9315 7.23276C47.0724 7.13783 47.2275 7.05004 47.3964 6.96909C47.5653 6.8891 47.7332 6.82838 47.9012 6.79038C48.041 6.75045 48.1739 6.72146 48.2997 6.70347C48.4247 6.68447 48.5441 6.67608 48.6551 6.67808C49.129 6.68708 49.506 6.83267 49.787 7.11655C50.0669 7.40045 50.2041 7.76549 50.1962 8.21128C50.1842 8.85128 49.9547 9.40918 49.5067 9.88218C49.0599 10.3548 48.5511 10.5855 47.9794 10.5755C47.6584 10.5695 47.3748 10.4642 47.1278 10.2572C46.8809 10.0513 46.7596 9.81597 46.7645 9.55112L46.7772 9.4144C46.7852 9.36547 46.7964 9.30648 46.8114 9.23765C46.2764 9.53465 45.851 9.91808 45.537 10.3861C45.2221 10.854 44.9663 11.4767 44.7723 12.2533L44.5682 13.1068C44.4482 13.5928 44.2458 13.9632 43.9628 14.2152C43.6789 14.4679 43.3361 14.5893 42.9325 14.5833L42.1171 14.5687C41.9913 14.5667 41.8724 14.5704 41.7616 14.5824C41.6496 14.5944 41.5441 14.6205 41.4462 14.6605C41.3342 14.7005 41.2212 14.7519 41.1092 14.8119C40.9981 14.8719 40.8795 14.9475 40.7548 15.0404L42.1532 9.05015C42.1672 8.99527 42.1794 8.93903 42.1874 8.88315C42.1953 8.82829 42.2 8.77202 42.201 8.71616C42.215 8.67416 42.2235 8.62568 42.2245 8.56968C42.2255 8.5147 42.2264 8.45866 42.2274 8.40268C42.2294 8.26377 42.2145 8.1517 42.1815 8.06772C42.1475 7.98372 42.0822 7.90533 41.9862 7.83433L41.9042 7.76011L41.8006 7.68491C42.0126 7.50691 42.2534 7.34091 42.5214 7.18491C42.7883 7.02993 43.0627 6.89832 43.3436 6.79233C43.5673 6.71248 43.7881 6.65077 44.0048 6.60581C44.2207 6.56081 44.4214 6.53933 44.6024 6.54233Z" fill="black"/>
<path d="M20.6014 14.7269V14.7054C20.6035 14.7039 20.6053 14.702 20.6073 14.7005L20.6014 14.7269Z" fill="black"/>
<path fill-rule="evenodd" clip-rule="evenodd" d="M37.4549 6.37436C38.2496 6.3884 38.8964 6.60221 39.3983 7.01694C39.8992 7.43085 40.1446 7.96007 40.1327 8.60288C40.1187 9.39979 39.6847 10.0669 38.8329 10.6039C37.9799 11.1419 36.8903 11.4328 35.5653 11.4798L35.5633 11.5843C35.5584 11.8501 35.6557 12.0649 35.8553 12.2289C36.0543 12.3939 36.3081 12.4797 36.6141 12.4847C36.781 12.4877 36.9772 12.4662 37.201 12.4212C37.4239 12.3762 37.649 12.3072 37.8729 12.2142C37.9578 12.1882 38.0409 12.1583 38.1258 12.1244C38.2098 12.0914 38.2938 12.054 38.3788 12.014L38.4413 11.9837L38.4833 11.9535C38.5113 11.9405 38.5719 11.9106 38.6639 11.8626C38.7549 11.8156 38.991 11.6766 39.371 11.4466C39.4269 11.4196 39.4839 11.3963 39.5399 11.3763C39.5959 11.3563 39.6519 11.3405 39.7079 11.3275L39.7919 11.307L39.8758 11.3089C40.0148 11.311 40.1287 11.3558 40.2176 11.4408C40.3065 11.5267 40.3505 11.6454 40.3475 11.7982C40.3435 12.0212 40.2419 12.2638 40.0419 12.5248C39.8419 12.7867 39.5572 13.0592 39.1903 13.3451C38.5684 13.808 37.9396 14.1561 37.3006 14.388C36.6626 14.621 36.0227 14.7311 35.3817 14.7201C34.3227 14.7011 33.4617 14.3708 32.7967 13.7298C32.133 13.0899 31.8101 12.2603 31.828 11.2406C31.852 9.91361 32.4257 8.76432 33.5516 7.79233C34.6766 6.82033 35.9779 6.34736 37.4549 6.37436ZM37.0663 8.20737C36.8014 8.20252 36.5558 8.32382 36.329 8.56968C36.1011 8.8166 35.9274 9.16206 35.8085 9.60483C36.3805 9.53183 36.805 9.42177 37.079 9.27378C37.3538 9.12585 37.4928 8.93249 37.4969 8.69565C37.4999 8.55665 37.4598 8.44 37.3778 8.348C37.2958 8.25509 37.1912 8.20937 37.0663 8.20737Z" fill="black"/>
<path d="M25.6942 1.16636C26.0562 1.17236 26.3445 1.27498 26.5565 1.47397C26.7684 1.67296 26.8721 1.94738 26.8661 2.29526L26.8544 2.37827L26.8417 2.50425L26.829 2.56577L26.8182 2.62925L25.6883 7.33628C26.2103 6.99728 26.6227 6.74635 26.9256 6.58335C27.2274 6.4215 27.5039 6.31406 27.7557 6.26304C27.8816 6.23706 28.004 6.22215 28.1229 6.21714C28.2409 6.21214 28.3706 6.21123 28.5106 6.21323C29.0954 6.2243 29.562 6.37916 29.913 6.67905C30.2629 6.979 30.4336 7.37277 30.4256 7.86265C30.4236 7.96063 30.418 8.05486 30.409 8.14585C30.4001 8.23575 30.3879 8.32365 30.3729 8.40757L30.3612 8.49058L30.328 8.57358L29.7626 10.9984C29.7316 11.1372 29.7055 11.269 29.6825 11.3949C29.6595 11.5198 29.6474 11.6178 29.6454 11.6878C29.6424 11.8698 29.7021 12.021 29.8251 12.1419C29.948 12.2629 30.1011 12.3254 30.2821 12.3285L30.3661 12.3294L30.4706 12.3109L30.5546 12.3021L30.6385 12.2718C30.7652 12.219 30.8729 12.1787 30.9647 12.1527C31.0545 12.1257 31.1219 12.1137 31.1639 12.1146C31.2469 12.1156 31.3198 12.1521 31.3807 12.223C31.4427 12.294 31.4735 12.3779 31.4715 12.4759C31.4695 12.6149 31.3958 12.781 31.2528 12.974C31.1099 13.1658 30.9183 13.3649 30.6786 13.5687L30.5614 13.6507L30.4452 13.7318C30.1622 13.9358 29.8702 14.0991 29.5692 14.2181C29.2672 14.3381 28.9621 14.4155 28.6551 14.4525C28.5431 14.4785 28.4349 14.4944 28.3299 14.4994C28.226 14.5044 28.1241 14.5062 28.0272 14.5042C27.4424 14.4943 26.9646 14.3289 26.5936 14.0082C26.2237 13.6882 26.0427 13.2701 26.0516 12.7552C26.0526 12.6852 26.0573 12.6115 26.0663 12.5355C26.0743 12.4588 26.0855 12.3931 26.1005 12.3373L26.6415 10.1517C26.6574 10.0689 26.6696 9.99306 26.6776 9.92319C26.6856 9.85319 26.6903 9.78972 26.6903 9.73472C26.6943 9.55381 26.6438 9.41002 26.5419 9.30405C26.4389 9.19719 26.3043 9.14306 26.1376 9.13999C25.8166 9.13399 25.56 9.24781 25.368 9.48081C25.175 9.71481 25.0108 10.1159 24.8758 10.6849L24.3319 13.0169C24.2409 13.4049 24.058 13.7064 23.7831 13.9164C23.5072 14.1272 23.1532 14.229 22.7225 14.221L22.0116 14.2083C21.8726 14.2063 21.7429 14.21 21.6239 14.223C21.505 14.234 21.3826 14.2602 21.2567 14.3001C21.1579 14.3401 21.0569 14.3944 20.951 14.4613C20.8469 14.5281 20.7326 14.6077 20.6073 14.7005L23.204 3.60874C23.235 3.47078 23.2611 3.34569 23.284 3.23472C23.307 3.12279 23.3192 3.03971 23.3202 2.98374C23.3232 2.83086 23.2905 2.70476 23.2225 2.60581C23.1545 2.50682 23.0304 2.41348 22.8514 2.32749C23.0923 2.10862 23.3537 1.91812 23.6356 1.7562C23.9164 1.59433 24.2041 1.46733 24.4989 1.37436C24.7088 1.30938 24.9151 1.25709 25.118 1.21909C25.321 1.18009 25.5132 1.16336 25.6942 1.16636Z" fill="black"/>
<path d="M17.3924 5.97104C18.2283 5.98609 18.9076 6.20165 19.4296 6.6146C19.9523 7.02855 20.2072 7.55579 20.1952 8.19663C20.1871 8.67046 20.0201 9.06435 19.6932 9.37827C19.3672 9.69427 18.967 9.84723 18.494 9.83823C18.0621 9.83121 17.7122 9.69496 17.4452 9.43198C17.1783 9.17003 17.0486 8.84333 17.0555 8.45444L17.0809 8.13999C17.1109 8.07103 17.1473 7.98786 17.1913 7.89097C17.2343 7.79402 17.2987 7.6697 17.3846 7.5189C16.8658 7.6899 16.4748 7.9484 16.2108 8.29233C15.9469 8.63622 15.8097 9.07217 15.8006 9.6019C15.7907 10.1868 15.9493 10.6571 16.2782 11.0111C16.6061 11.366 17.055 11.5469 17.6258 11.558C17.7238 11.56 17.8041 11.5609 17.8671 11.5619C17.9301 11.5629 17.9963 11.5583 18.0663 11.5443C18.1912 11.5333 18.3389 11.494 18.5067 11.4271C18.6747 11.3611 18.9565 11.2407 19.3505 11.0667L19.4764 11.0267L19.5809 10.9867C19.6509 10.9747 19.7144 10.9643 19.7704 10.9593C19.8263 10.9533 19.8815 10.9505 19.9374 10.9515C20.1042 10.9546 20.2322 11.0012 20.3221 11.0941C20.4101 11.1861 20.4531 11.3233 20.4501 11.5033C20.4461 11.7133 20.3546 11.9343 20.1766 12.1683C19.9976 12.4023 19.7252 12.6767 19.3573 12.9896C18.9893 13.2906 18.6162 13.5415 18.2362 13.7435C17.8563 13.9454 17.4774 14.0994 17.0985 14.2044C16.8745 14.2694 16.6469 14.317 16.4159 14.348C16.186 14.378 15.9591 14.392 15.7362 14.388C14.6772 14.369 13.7947 14.0165 13.0897 13.3275C12.3838 12.6385 12.0405 11.8063 12.0575 10.8314C12.0815 9.52147 12.6272 8.37769 13.6981 7.40073C14.7671 6.42373 15.9994 5.94704 17.3924 5.97104Z" fill="black"/>
<path d="M68.5428 3.88901L68.993 5.05601L69.4569 3.90073L69.9432 3.90757L69.9217 5.57065L69.5624 5.56675L69.5799 4.30601L69.1141 5.47886L68.8026 5.47397L68.37 4.28843L68.3524 5.55112L68.0223 5.54624L68.0448 3.88218L68.5428 3.88901Z" fill="black"/>
<path d="M67.8075 3.87729L67.8036 4.16733L67.3631 4.16147L67.3456 5.5355L66.9676 5.53061L66.9852 4.15659L66.5448 4.15073L66.5487 3.86167L67.8075 3.87729Z" fill="black"/>
</svg>
