<svg width="319" height="53" viewBox="0 0 319 53" fill="none" xmlns="http://www.w3.org/2000/svg">
<path d="M230.335 9.60059C232.458 9.60059 234.346 9.98079 235.998 10.7422C237.65 11.4929 238.959 12.5227 239.924 13.8311C240.9 15.1396 241.415 16.6256 241.469 18.2881H237.607C237.414 16.6578 236.631 15.3922 235.258 14.4912C233.885 13.5904 232.201 13.1396 230.206 13.1396C228.748 13.1397 227.471 13.3758 226.377 13.8477C225.294 14.3196 224.446 14.9682 223.835 15.7939C223.234 16.6197 222.935 17.5584 222.935 18.6094C222.935 19.4887 223.143 20.2452 223.562 20.8779C223.991 21.5 224.538 22.0202 225.203 22.4385C225.868 22.8461 226.566 23.184 227.295 23.4521C228.024 23.7095 228.694 23.9192 229.306 24.0801L232.652 24.9805C233.51 25.2057 234.465 25.5173 235.516 25.9141C236.577 26.3109 237.591 26.8526 238.557 27.5391C239.533 28.2148 240.337 29.0837 240.97 30.1455C241.602 31.2073 241.919 32.5103 241.919 34.0547C241.919 35.835 241.452 37.4437 240.52 38.8809C239.597 40.3181 238.245 41.4613 236.465 42.3086C234.695 43.1558 232.545 43.5791 230.014 43.5791C227.654 43.5791 225.611 43.198 223.884 42.4365C222.168 41.675 220.816 40.6131 219.829 39.251C218.853 37.8889 218.301 36.3066 218.172 34.5049H222.291C222.398 35.7491 222.817 36.7796 223.546 37.5947C224.286 38.399 225.22 38.9997 226.346 39.3965C227.482 39.7825 228.705 39.9756 230.014 39.9756C231.537 39.9756 232.904 39.7287 234.116 39.2354C235.328 38.7312 236.288 38.0337 236.996 37.1436C237.704 36.2427 238.058 35.1914 238.058 33.9902C238.058 32.8963 237.752 32.0057 237.141 31.3193C236.529 30.633 235.725 30.0755 234.728 29.6465C233.73 29.2175 232.652 28.8423 231.493 28.5205L227.439 27.3623C224.865 26.6222 222.827 25.5653 221.325 24.1924C219.824 22.8195 219.073 21.0228 219.073 18.8027C219.073 16.9581 219.572 15.3494 220.569 13.9766C221.578 12.5929 222.929 11.5203 224.624 10.7588C226.329 9.98661 228.233 9.60062 230.335 9.60059Z" fill="white"/>
<path fill-rule="evenodd" clip-rule="evenodd" d="M287.687 17.9658C288.48 17.9658 289.392 18.0628 290.422 18.2559C291.462 18.4382 292.465 18.8193 293.431 19.3984C294.406 19.9776 295.216 20.8517 295.859 22.0205C296.503 23.1896 296.825 24.756 296.825 26.7188V43H293.028V39.6533H292.835C292.578 40.1896 292.148 40.7636 291.548 41.375C290.947 41.9864 290.148 42.5065 289.15 42.9355C288.153 43.3645 286.936 43.5791 285.499 43.5791C283.933 43.5791 282.512 43.2842 281.235 42.6943C279.959 42.0937 278.945 41.2306 278.194 40.1045C277.444 38.9676 277.068 37.5942 277.068 35.9854C277.068 34.5696 277.348 33.4215 277.905 32.542C278.463 31.652 279.209 30.9552 280.142 30.4512C281.075 29.9471 282.104 29.5719 283.23 29.3252C284.367 29.0678 285.51 28.864 286.657 28.7139C288.159 28.5208 289.376 28.3758 290.31 28.2793C291.253 28.1721 291.939 27.9946 292.368 27.748C292.808 27.5014 293.028 27.0723 293.028 26.4609V26.332C293.028 24.7448 292.593 23.5113 291.725 22.6318C290.867 21.7525 289.564 21.3125 287.815 21.3125C286.003 21.3125 284.581 21.7092 283.552 22.5029C282.522 23.2966 281.798 24.144 281.38 25.0449L277.776 23.7578C278.42 22.2564 279.278 21.0875 280.351 20.251C281.434 19.4037 282.613 18.8139 283.89 18.4814C285.177 18.1382 286.442 17.9658 287.687 17.9658ZM293.028 30.5801C292.867 30.7731 292.513 30.9495 291.966 31.1104C291.43 31.2605 290.807 31.3947 290.1 31.5127C289.403 31.6199 288.722 31.7169 288.057 31.8027C287.402 31.8778 286.871 31.9415 286.464 31.9951C285.477 32.1238 284.554 32.3335 283.696 32.623C282.849 32.9019 282.163 33.3254 281.638 33.8936C281.123 34.4513 280.865 35.2134 280.865 36.1787C280.865 37.4978 281.353 38.4952 282.329 39.1709C283.316 39.8359 284.566 40.168 286.078 40.168C287.58 40.1679 288.845 39.8731 289.875 39.2832C290.915 38.6933 291.698 37.932 292.224 36.999C292.76 36.0659 293.028 35.0844 293.028 34.0547V30.5801Z" fill="white"/>
<path fill-rule="evenodd" clip-rule="evenodd" d="M259.886 17.9658C261.173 17.9658 262.444 18.1803 263.699 18.6094C264.954 19.0384 266.096 19.7359 267.126 20.7012C268.156 21.6557 268.976 22.9215 269.587 24.498C270.198 26.0747 270.504 28.0162 270.504 30.3223V31.9307H252.559C252.613 33.5748 252.931 34.9853 253.515 36.1621C254.169 37.4491 255.075 38.4307 256.233 39.1064C257.392 39.7714 258.738 40.1044 260.271 40.1045C261.269 40.1045 262.17 39.9644 262.975 39.6855C263.79 39.396 264.492 38.9669 265.082 38.3984C265.672 37.8193 266.128 37.1011 266.45 36.2432L270.118 37.2725C269.732 38.5166 269.083 39.6108 268.171 40.5547C267.259 41.4876 266.133 42.2167 264.793 42.7422C263.452 43.257 261.945 43.5146 260.271 43.5146C257.891 43.5146 255.837 42.9894 254.11 41.9385C252.394 40.8767 251.069 39.3964 250.136 37.498C249.213 35.5889 248.753 33.3682 248.753 30.8369C248.753 28.3059 249.213 26.075 250.136 24.1445C251.069 22.2033 252.367 20.6907 254.029 19.6074C255.702 18.5134 257.655 17.9658 259.886 17.9658ZM259.886 21.377C258.373 21.377 257.065 21.7521 255.96 22.5029C254.866 23.243 254.024 24.2089 253.435 25.3994C252.929 26.4197 252.642 27.503 252.569 28.6494H266.643C266.643 27.2553 266.364 26.0109 265.807 24.917C265.26 23.823 264.476 22.959 263.457 22.3262C262.449 21.6935 261.258 21.377 259.886 21.377Z" fill="white"/>
<path fill-rule="evenodd" clip-rule="evenodd" d="M69.0723 17.9658C70.7025 17.9658 72.22 18.2294 73.625 18.7549C75.0408 19.2697 76.2741 20.0475 77.3252 21.0879C78.3869 22.1282 79.2129 23.4363 79.8027 25.0127C80.3926 26.5786 80.6875 28.4134 80.6875 30.5156V32.3975H63.8594V32.4141C63.8594 33.6366 64.0848 34.6929 64.5352 35.583C64.9963 36.4732 65.6449 37.1599 66.4814 37.6426C67.318 38.1252 68.3104 38.3662 69.458 38.3662C70.2195 38.3662 70.917 38.2594 71.5498 38.0449C72.1826 37.8304 72.7244 37.5081 73.1748 37.0791C73.6251 36.6502 73.9682 36.1248 74.2041 35.5029L80.543 35.9209C80.2212 37.4439 79.5619 38.7742 78.5645 39.9111C77.5777 41.0373 76.3013 41.917 74.7354 42.5498C73.1802 43.1719 71.3835 43.4824 69.3457 43.4824C66.8037 43.4824 64.6153 42.9681 62.7812 41.9385C60.958 40.8982 59.5532 39.4285 58.5664 37.5303C57.5797 35.6212 57.086 33.3631 57.0859 30.7568C57.0859 28.2149 57.5796 25.9834 58.5664 24.0635C59.5532 22.1438 60.9423 20.6477 62.7334 19.5752C64.5353 18.5027 66.6483 17.9658 69.0723 17.9658ZM69.1846 23.082C68.1442 23.082 67.2214 23.324 66.417 23.8066C65.6235 24.2785 65.0012 24.9164 64.5508 25.7207C64.1352 26.4529 63.9095 27.263 63.8682 28.1504H74.2363C74.2363 27.1638 74.0217 26.2898 73.5928 25.5283C73.1637 24.7668 72.5682 24.1712 71.8066 23.7422C71.0559 23.3025 70.1819 23.082 69.1846 23.082Z" fill="white"/>
<path fill-rule="evenodd" clip-rule="evenodd" d="M187.865 17.9658C189.496 17.9658 191.014 18.2293 192.419 18.7549C193.835 19.2697 195.068 20.0476 196.119 21.0879C197.181 22.1282 198.007 23.4363 198.597 25.0127C199.187 26.5786 199.481 28.4134 199.481 30.5156V32.3975H182.653V32.4141C182.653 33.6365 182.878 34.6929 183.328 35.583C183.789 36.4732 184.439 37.1599 185.275 37.6426C186.112 38.1252 187.104 38.3662 188.252 38.3662C189.013 38.3662 189.71 38.2593 190.343 38.0449C190.976 37.8304 191.517 37.5081 191.968 37.0791C192.418 36.6501 192.762 36.125 192.998 35.5029L199.337 35.9209C199.015 37.4439 198.355 38.7742 197.357 39.9111C196.371 41.0372 195.094 41.917 193.528 42.5498C191.973 43.1718 190.176 43.4824 188.139 43.4824C185.597 43.4824 183.409 42.968 181.575 41.9385C179.752 40.8981 178.346 39.4287 177.359 37.5303C176.373 35.6212 175.88 33.3631 175.88 30.7568C175.88 28.2149 176.373 25.9834 177.359 24.0635C178.346 22.1437 179.735 20.6477 181.526 19.5752C183.328 18.5027 185.441 17.9659 187.865 17.9658ZM187.979 23.082C186.938 23.082 186.015 23.324 185.211 23.8066C184.417 24.2785 183.795 24.9164 183.345 25.7207C182.929 26.4529 182.703 27.263 182.662 28.1504H193.03C193.03 27.1638 192.816 26.2897 192.387 25.5283C191.958 24.7668 191.362 24.1712 190.601 23.7422C189.85 23.3025 188.976 23.0821 187.979 23.082Z" fill="white"/>
<path fill-rule="evenodd" clip-rule="evenodd" d="M97.5811 17.9658C98.9539 17.9658 100.268 18.1275 101.522 18.4492C102.788 18.771 103.909 19.2696 104.885 19.9453C105.872 20.621 106.649 21.4899 107.218 22.5518C107.786 23.6028 108.07 24.8628 108.07 26.332V43H101.57V39.5732H101.378C100.981 40.3454 100.45 41.0263 99.7852 41.6162C99.1202 42.1954 98.3208 42.6519 97.3877 42.9844C96.4547 43.3061 95.3768 43.4668 94.1543 43.4668C92.5776 43.4668 91.1719 43.1935 89.9385 42.6465C88.7051 42.0888 87.7293 41.2678 87.0107 40.1846C86.3028 39.0906 85.9492 37.728 85.9492 36.0977C85.9493 34.7249 86.201 33.5717 86.7051 32.6387C87.2092 31.7057 87.896 30.9551 88.7646 30.3867C89.6334 29.8183 90.6199 29.3892 91.7246 29.0996C92.8399 28.8101 94.0089 28.6063 95.2314 28.4883C96.6686 28.3381 97.8275 28.199 98.707 28.0703C99.5861 27.9309 100.224 27.7269 100.621 27.459C101.018 27.1908 101.217 26.7931 101.217 26.2676V26.1719C101.217 25.1531 100.895 24.3644 100.252 23.8066C99.6192 23.2489 98.7178 22.9698 97.5488 22.9697C96.3155 22.9697 95.3338 23.2431 94.6045 23.79C93.8751 24.3263 93.3922 25.0022 93.1562 25.8174L86.8174 25.3027C87.1391 23.8012 87.772 22.5032 88.7158 21.4092C89.6597 20.3044 90.8773 19.4571 92.3682 18.8672C93.8698 18.2666 95.6075 17.9658 97.5811 17.9658ZM101.265 31.5449C101.05 31.6843 100.755 31.8127 100.38 31.9307C100.015 32.0379 99.6026 32.1398 99.1416 32.2363C98.6804 32.3221 98.219 32.4034 97.7578 32.4785C97.2966 32.5429 96.8783 32.6016 96.5029 32.6553C95.6986 32.7732 94.9961 32.9604 94.3955 33.2178C93.7951 33.4751 93.3286 33.8241 92.9961 34.2637C92.6636 34.6927 92.4971 35.2295 92.4971 35.873C92.4971 36.8061 92.8351 37.5194 93.5107 38.0127C94.1971 38.4952 95.0662 38.7363 96.1172 38.7363C97.1251 38.7363 98.0151 38.5383 98.7871 38.1416C99.5594 37.734 100.166 37.1864 100.605 36.5C101.045 35.8136 101.265 35.0357 101.265 34.167V31.5449Z" fill="white"/>
<path d="M17.6328 9.60059C19.542 9.60059 21.3121 9.86801 22.9424 10.4043C24.5833 10.9406 26.0362 11.7243 27.3018 12.7539C28.5674 13.7728 29.5979 15.0218 30.3916 16.502C31.196 17.982 31.7103 19.6769 31.9355 21.5859H24.8887C24.76 20.6745 24.4973 19.865 24.1006 19.1572C23.7037 18.4386 23.1944 17.8264 22.5723 17.3223C21.9502 16.8182 21.2311 16.4322 20.416 16.1641C19.6117 15.896 18.7376 15.7617 17.7939 15.7617C16.0886 15.7617 14.6025 16.1859 13.3369 17.0332C12.0715 17.8698 11.0907 19.0926 10.3936 20.7012C9.69639 22.2993 9.34766 24.2408 9.34766 26.5254C9.34766 28.8743 9.69639 30.8482 10.3936 32.4463C11.1014 34.0441 12.0881 35.2504 13.3535 36.0654C14.6191 36.8806 16.0836 37.2891 17.7461 37.2891C18.679 37.289 19.5424 37.1656 20.3359 36.9189C21.1403 36.6723 21.8535 36.3127 22.4756 35.8408C23.0977 35.3582 23.6129 34.7734 24.0205 34.0869C24.4387 33.4006 24.7278 32.6176 24.8887 31.7383L31.9355 31.7705C31.7532 33.2827 31.2977 34.7415 30.5684 36.1465C29.8498 37.5407 28.8788 38.7899 27.6562 39.8945C26.4443 40.9885 24.9963 41.8574 23.3125 42.501C21.6393 43.1338 19.7458 43.4502 17.6328 43.4502C14.6941 43.4502 12.0667 42.785 9.75 41.4551C7.44398 40.1251 5.62001 38.2002 4.2793 35.6797C2.94936 33.1592 2.28418 30.1077 2.28418 26.5254C2.28418 22.9323 2.96009 19.875 4.31152 17.3545C5.66295 14.8341 7.49778 12.9149 9.81445 11.5957C12.1311 10.2658 14.737 9.60062 17.6328 9.60059Z" fill="white"/>
<path d="M123.829 18.2881H128.479V23.4365H123.829V35.4062C123.829 36.0391 123.926 36.5328 124.119 36.8867C124.312 37.2296 124.58 37.4709 124.923 37.6104C125.277 37.7498 125.685 37.8193 126.146 37.8193C126.468 37.8193 126.79 37.7929 127.111 37.7393C127.433 37.6749 127.68 37.6269 127.852 37.5947L128.93 42.6943C128.586 42.8016 128.103 42.925 127.481 43.0645C126.859 43.2146 126.103 43.3057 125.213 43.3379C123.561 43.4022 122.113 43.1827 120.869 42.6787C119.636 42.1746 118.676 41.3909 117.989 40.3291C117.303 39.2674 116.965 37.927 116.976 36.3076V23.4365H113.597V18.2881H116.976V12.3672H123.829V18.2881Z" fill="white"/>
<path d="M311.172 18.2881H316.449V21.5059H311.172V35.9209C311.172 36.9933 311.328 37.7977 311.639 38.334C311.96 38.8595 312.368 39.2141 312.861 39.3965C313.365 39.5681 313.896 39.6533 314.454 39.6533C314.872 39.6533 315.215 39.6317 315.483 39.5889C315.751 39.5353 315.966 39.4931 316.127 39.4609L316.899 42.8711C316.642 42.9676 316.282 43.0646 315.821 43.1611C315.36 43.2683 314.775 43.3213 314.067 43.3213C312.995 43.3212 311.944 43.091 310.914 42.6299C309.895 42.1687 309.048 41.4662 308.372 40.5225C307.707 39.5787 307.375 38.3881 307.375 36.9512V21.5059H303.643V18.2881H307.375V12.3672H311.172V18.2881Z" fill="white"/>
<path d="M51.5879 17.9346C51.9311 17.9346 52.3014 17.9551 52.6982 17.998C53.095 18.0409 53.4439 18.1007 53.7441 18.1758V24.2568C53.4224 24.1603 52.9767 24.0741 52.4082 23.999C51.8398 23.924 51.3195 23.8867 50.8477 23.8867C49.8395 23.8867 48.9382 24.1071 48.1445 24.5469C47.3618 24.9759 46.7394 25.5765 46.2783 26.3486C45.828 27.1208 45.6025 28.0115 45.6025 29.0195V43H38.749V18.2881H45.3936V22.5996H45.6514C46.1019 21.0659 46.8581 19.9079 47.9199 19.125C48.9818 18.3313 50.2043 17.9346 51.5879 17.9346Z" fill="white"/>
<path d="M141.744 43H134.89V18.2881H141.744V43Z" fill="white"/>
<path d="M159.59 35.9697H159.848L164.964 18.2881H172.22L163.58 43H155.857L147.218 18.2881H154.458L159.59 35.9697Z" fill="white"/>
<path d="M138.333 8.16797C139.352 8.16797 140.221 8.5118 140.939 9.19824C141.669 9.87383 142.033 10.6833 142.033 11.627C142.033 12.5815 141.669 13.4024 140.939 14.0889C140.221 14.7646 139.352 15.1025 138.333 15.1025C137.314 15.1025 136.44 14.7645 135.711 14.0889C134.992 13.4024 134.633 12.5815 134.633 11.627C134.633 10.6833 134.992 9.87385 135.711 9.19824C136.44 8.51185 137.314 8.16798 138.333 8.16797Z" fill="white"/>
</svg>
