<svg width="82" height="28" viewBox="0 0 82 28" fill="none" xmlns="http://www.w3.org/2000/svg">
<path fill-rule="evenodd" clip-rule="evenodd" d="M34.523 7.8916C34.8108 7.90164 34.9435 8.0798 34.9546 8.35059C34.9566 8.46053 34.9566 8.56877 34.9566 8.67871V13.0215C34.9566 13.7035 34.9698 14.3883 34.9468 15.0703C34.9037 16.355 34.0605 17.0032 32.7466 16.7832C32.0528 16.6662 31.5004 16.2059 31.4673 15.498C31.4063 14.1241 31.3782 12.7411 31.4722 11.3701C31.5382 10.3852 32.5757 9.82992 33.5826 10.0957C33.7165 10.1307 33.8458 10.1735 34.0425 10.2324L34.0474 10.2305C34.0474 9.57563 34.0403 8.96438 34.0513 8.35352C34.0564 8.06773 34.2101 7.88161 34.523 7.8916ZM33.0181 10.877C32.6892 10.9289 32.4819 11.1268 32.4039 11.4268C32.3479 11.6378 32.3229 11.8582 32.3179 12.0752C32.3049 12.5251 32.313 12.9769 32.313 13.4268L32.3101 13.4238H32.2798C32.3128 14.0638 32.3052 14.7068 32.3892 15.3398C32.4052 15.4678 32.4417 15.575 32.4947 15.665C32.5247 15.717 32.5728 15.7501 32.6148 15.7891C32.6428 15.8151 32.6629 15.8521 32.6958 15.873C32.8618 15.978 33.0843 16.0106 33.3462 15.9736C33.7878 15.9105 33.9894 15.615 33.9996 15.2344C34.0246 14.0754 34.0224 12.9168 34.0064 11.7578C34.0064 11.5798 33.9139 11.3865 33.816 11.2275L33.813 11.2246C33.6391 10.9428 33.359 10.824 33.0181 10.877Z" fill="black"/>
<path d="M47.7115 10.2021C47.9945 10.0091 48.3276 10.2661 48.3326 10.6641C48.3436 11.4291 48.3355 12.194 48.3355 12.957V12.959C48.3355 13.6679 48.3536 14.3789 48.3306 15.0879C48.2906 16.3358 47.4189 17.0012 46.146 16.7764C45.419 16.6474 44.9058 16.1306 44.8628 15.3516C44.8079 14.3978 44.8278 13.4431 44.8208 12.4873C44.8148 11.9003 44.8208 11.3136 44.8208 10.7256C44.8209 10.4148 44.9221 10.1562 45.2749 10.1562C45.6288 10.1563 45.7349 10.4019 45.732 10.7178C45.727 11.9858 45.727 13.2574 45.732 14.5264C45.732 14.7972 45.7494 15.0731 45.7994 15.3389C45.8783 15.7647 46.1386 15.9723 46.5494 15.9824C46.9714 15.9954 47.2295 15.8157 47.3355 15.3877C47.3934 15.1538 47.4087 14.902 47.4087 14.6602C47.4167 13.3622 47.4014 12.0666 47.4234 10.7686C47.4266 10.5737 47.5527 10.3102 47.7115 10.2021Z" fill="black"/>
<path d="M57.0904 9.69336C57.2274 8.71645 58.1409 8.11031 59.2007 8.28516C60.1756 8.44714 60.787 9.31405 60.5552 10.2529C60.5202 10.3949 60.3028 10.576 60.1578 10.585C60.0149 10.5948 59.8134 10.4415 59.7164 10.3047C59.6334 10.1827 59.6641 9.9892 59.6431 9.8252C59.5881 9.37527 59.3811 9.15331 58.9722 9.11426C58.5522 9.07226 58.2317 9.2683 58.0777 9.6543C57.8828 10.1482 58.0298 10.7324 58.4566 11.0674C58.6635 11.2303 58.8859 11.3819 59.1177 11.5068C60.5577 12.2688 60.8986 13.4981 60.7037 14.9551C60.6737 15.185 60.6176 15.4119 60.5396 15.6318C60.2496 16.4457 59.6052 16.8445 58.6744 16.8076C57.7924 16.7736 57.0975 16.309 56.9585 15.5C56.8626 14.9552 56.9362 14.3693 57.0171 13.8115C57.0701 13.4376 57.411 13.2642 57.691 13.3691C58.052 13.5061 57.9614 13.7805 57.9244 14.0605C57.8734 14.4475 57.8147 14.8457 57.8677 15.2266C57.9309 15.6814 58.3155 15.9499 58.7544 15.9619C59.2141 15.9768 59.5155 15.7493 59.6695 15.2656C59.7095 15.1366 59.7374 14.9992 59.7544 14.8652C59.7774 14.6892 59.7873 14.513 59.8023 14.334L59.8052 14.3271C59.8332 13.4542 59.4639 12.7976 58.689 12.3486C58.494 12.2356 58.3116 12.1053 58.1226 11.9883C57.2518 11.4463 56.9564 10.6562 57.0904 9.69336Z" fill="black"/>
<path fill-rule="evenodd" clip-rule="evenodd" d="M28.4126 10.0635C29.3335 10.0635 29.9963 10.5542 30.0874 11.417C30.1664 12.1599 30.1452 12.9152 30.1382 13.6631C30.1352 14.0511 29.885 14.2548 29.479 14.2578H27.5474L27.5445 14.2549C27.5774 14.6677 27.5823 14.9956 27.6373 15.3154C27.7213 15.7874 28.0165 15.9957 28.5015 15.9727C28.9513 15.9505 29.1979 15.7212 29.2359 15.2373C29.2609 14.9293 29.3325 14.6753 29.7115 14.6973C30.1001 14.7194 30.112 15.0099 30.107 15.2988C30.0918 16.1886 29.5437 16.7408 28.6119 16.8018C27.569 16.8697 26.7791 16.375 26.7261 15.457C26.6501 14.1102 26.6531 12.7561 26.7261 11.4092C26.7712 10.5665 27.5009 10.0656 28.4126 10.0635ZM28.3785 10.8887C27.9715 10.9137 27.6929 11.1308 27.6499 11.5078C27.58 12.1237 27.5736 12.7468 27.5386 13.3896H29.2388C29.2388 12.8168 29.2409 12.2867 29.2359 11.7568C29.2359 11.6639 29.2033 11.5685 29.1763 11.4785C29.0524 11.0726 28.7763 10.8678 28.3785 10.8887Z" fill="black"/>
<path d="M53.191 8.19531C53.5696 8.19053 53.6656 8.47209 53.6626 8.79395C53.6576 9.22893 53.6626 9.66398 53.6626 10.168H54.2662C54.7809 10.17 55.0029 10.2998 54.9761 10.6016C54.9381 11.0245 54.6057 11.0176 54.2847 11.0156H53.6626L53.6656 11.0176V13.3096C53.6656 13.9526 53.6601 14.5943 53.6851 15.2363C53.7062 15.7051 53.9538 15.962 54.3248 15.957C54.7796 15.9529 54.8679 15.64 54.9029 15.29C54.9089 15.236 54.9134 15.183 54.9234 15.126C54.9614 14.877 55.0977 14.7185 55.3707 14.7305C55.6525 14.7405 55.744 14.9339 55.772 15.1729C55.871 16.0039 55.3193 16.7073 54.5113 16.7783C53.4914 16.8692 52.7863 16.3386 52.7583 15.3877C52.7234 14.0898 52.7467 12.792 52.7437 11.4951V11.0674C52.3427 10.9254 51.6981 11.2206 51.6851 10.6016C51.6724 9.96715 52.3198 10.2582 52.7437 10.1143C52.7437 9.69326 52.7537 9.25064 52.7417 8.80664C52.7338 8.48379 52.8101 8.20031 53.191 8.19531Z" fill="black"/>
<path fill-rule="evenodd" clip-rule="evenodd" d="M16.565 8.34961C17.7518 8.38373 18.4937 9.01314 18.5347 10.166C18.5897 11.759 18.5897 13.3582 18.5347 14.9541C18.4916 16.1219 17.7281 16.7477 16.5162 16.7617C16.2333 16.7647 15.9503 16.7739 15.6705 16.7549C15.1756 16.7229 14.9918 16.5347 14.9888 16.0527C14.9818 14.8799 14.9889 13.708 14.9869 12.5342L14.9839 12.5293C14.9839 11.3983 14.9819 10.2638 14.9839 9.13184C14.9839 8.55292 15.1625 8.37365 15.7593 8.34961C16.0263 8.33761 16.295 8.33961 16.565 8.34961ZM17.6158 10.5332C17.5978 9.43031 17.1007 9.06114 15.941 9.24902H15.939L15.938 9.25098V15.9111C16.1428 15.9111 16.3092 15.9181 16.4781 15.9111C17.1037 15.8861 17.3809 15.6817 17.5269 15.1309C17.5359 15.097 17.5463 15.0661 17.5542 15.0293C17.5872 14.8833 17.6157 14.7339 17.6158 14.584C17.6168 14.3581 17.6177 14.1321 17.6187 13.9062C17.6247 13.0142 17.6257 12.1215 17.6187 11.2295C17.6167 10.9977 17.6188 10.765 17.6158 10.5332Z" fill="black"/>
<path fill-rule="evenodd" clip-rule="evenodd" d="M64.3248 8.24316C65.3048 8.28916 65.9658 8.94975 65.9888 9.96875C66.0168 11.1976 65.9986 12.4274 65.9986 13.6562V16.1152C65.9986 16.5372 65.825 16.778 65.522 16.749C65.1181 16.71 65.0522 16.4307 65.0572 16.0957C65.0672 15.3217 65.0601 14.5433 65.0601 13.7373L65.0621 13.7344H63.2388V15.4082C63.2388 15.6952 63.244 15.9836 63.231 16.2695C63.221 16.5554 63.0601 16.745 62.7593 16.7432C62.4583 16.7432 62.3117 16.5437 62.2867 16.2617C62.2817 16.2087 62.2818 16.1526 62.2818 16.0986V10.2793C62.2818 10.1155 62.3018 9.95177 62.3248 9.79102C62.4787 8.71811 63.1659 8.18627 64.3248 8.24316ZM64.1333 9.09863C63.6804 9.10563 63.3204 9.34761 63.2994 9.80957C63.2564 10.8116 63.2867 11.8168 63.2867 12.8428H63.2886V12.8447H65.065L65.0621 12.8438C65.0621 12.1908 65.0701 11.5767 65.0601 10.9668C65.0521 10.5729 65.0568 10.172 64.9869 9.78809C64.9219 9.42509 64.7347 9.2167 64.4507 9.1377C64.3559 9.11077 64.2491 9.09667 64.1333 9.09863Z" fill="black"/>
<path d="M39.0132 8.34277C39.3212 8.34277 39.6069 8.41437 39.6099 8.77637C39.6098 9.16 39.3196 9.22269 38.9908 9.21973C38.4988 9.21473 38.008 9.21973 37.48 9.21973V11.6992H38.8414C39.1543 11.6992 39.4301 11.772 39.4273 12.1338C39.4273 12.4776 39.1527 12.539 38.8619 12.5391H37.4605V16.1338C37.4605 16.4567 37.3616 16.7331 36.9888 16.7412C36.6099 16.7482 36.5035 16.4762 36.5035 16.1514C36.5035 13.8155 36.4983 11.4814 36.5083 9.14453C36.5083 8.53453 36.6979 8.35973 37.3169 8.34473C37.8817 8.33274 38.4475 8.34077 39.0132 8.34277Z" fill="black"/>
<path d="M21.4263 10.0439C22.2972 10.0389 22.81 10.4183 22.981 11.2441C23.047 11.5621 23.0473 11.8957 23.0523 12.2207C23.0571 12.4913 22.9034 12.6668 22.6158 12.667C22.3228 12.667 22.1963 12.4808 22.1763 12.2148C22.1553 11.956 22.1529 11.6943 22.1099 11.4404C22.0589 11.1375 21.9034 10.8971 21.5445 10.873C21.1705 10.848 20.9002 11.0154 20.8072 11.3574C20.7292 11.6433 20.7018 11.9492 20.6988 12.2461C20.6888 13.5301 20.6918 14.8137 20.6968 16.0967C20.6968 16.4085 20.6612 16.6869 20.2564 16.7139C19.9414 16.7359 19.7818 16.521 19.7798 16.083C19.7748 15.3751 19.7798 14.663 19.7798 13.9551H19.8257L19.8228 13.9502C19.8228 13.1042 19.7745 12.256 19.8355 11.416C19.9006 10.5432 20.5274 10.05 21.4263 10.0439Z" fill="black"/>
<path d="M41.4419 10.1084C42.5129 9.81241 43.3367 10.2966 43.5318 11.3545C43.5818 11.6335 43.5846 11.9249 43.5816 12.2109C43.5815 12.4778 43.435 12.661 43.1451 12.666C42.8522 12.6699 42.7179 12.4846 42.6929 12.2227C42.6699 11.9787 42.6801 11.7283 42.6421 11.4863C42.5891 11.1546 42.4403 10.8843 42.0318 10.8721C41.6328 10.8621 41.3872 11.0648 41.3042 11.4258C41.2453 11.6776 41.2233 11.9395 41.2203 12.1953C41.2133 13.4933 41.2133 14.7889 41.2203 16.0869C41.2202 16.3967 41.1853 16.6758 40.7867 16.71C40.4737 16.737 40.2985 16.5148 40.2964 16.0898C40.2914 15.3659 40.2964 14.6429 40.2964 13.9189H40.3013V13.917C40.3013 13.2081 40.2812 12.497 40.3062 11.7881C40.3392 10.8502 40.7251 10.3065 41.4419 10.1084Z" fill="black"/>
<path d="M24.8306 10.1553C25.1806 10.1683 25.2731 10.4223 25.2701 10.7373C25.2601 11.6392 25.2671 12.5385 25.2671 13.4404H25.2701C25.2701 14.3421 25.2651 15.2409 25.2701 16.1426C25.2701 16.4536 25.1918 16.705 24.8208 16.708C24.454 16.711 24.3512 16.4592 24.3511 16.1533V10.7051C24.3511 10.3932 24.4788 10.1464 24.8306 10.1553Z" fill="black"/>
<path d="M50.2115 10.1553C50.5645 10.1503 50.6753 10.4058 50.6753 10.7178V16.1631C50.6753 16.4738 50.5694 16.7179 50.2007 16.708C49.8268 16.699 49.7632 16.4368 49.7632 16.1318C49.7692 15.2298 49.7632 14.3297 49.7632 13.4287L49.7662 13.4307C49.7662 12.5287 49.7712 11.6295 49.7632 10.7275C49.7613 10.4146 49.8576 10.1603 50.2115 10.1553Z" fill="black"/>
<path d="M24.7837 8.29102C25.0847 8.26702 25.3323 8.49122 25.3423 8.82422H25.3453C25.3252 9.0951 25.1607 9.28869 24.8248 9.30469C24.5269 9.31956 24.2836 9.08785 24.2915 8.79492C24.2986 8.49003 24.4709 8.31609 24.7837 8.29102Z" fill="black"/>
<path d="M50.1978 8.28516C50.5487 8.32216 50.7439 8.48565 50.733 8.8125C50.723 9.11743 50.5409 9.29668 50.231 9.30176C49.9 9.30576 49.7029 9.12771 49.6949 8.80273C49.6879 8.46775 49.9018 8.32417 50.1978 8.28516Z" fill="black"/>
<path fill-rule="evenodd" clip-rule="evenodd" d="M66.7603 2.50293C66.8131 2.52191 66.8608 2.55446 66.9156 2.56152C69.4185 2.89652 71.1155 4.28421 72.2925 6.36914C72.8155 7.29614 73.1795 8.2755 73.3785 9.3125V18.4961L73.2417 19.1309C73.1956 19.3431 73.146 19.5543 73.0855 19.7617C72.3255 22.4187 70.0196 24.2886 67.1636 24.5596C66.6438 24.6095 66.121 24.6348 65.5982 24.6348C49.8773 24.6398 34.1541 24.645 18.4332 24.626C16.9411 24.626 15.4175 24.5942 13.9605 24.3252C11.5557 23.8801 10.089 22.2569 9.14409 20.1631C8.76312 19.3192 8.61865 18.4152 8.62163 17.4873C8.62863 14.5073 8.62358 11.5308 8.62358 8.55078C8.62372 5.50195 10.753 3.0723 13.8619 2.57129C13.9279 2.56129 13.9912 2.52493 14.0572 2.50293H66.7603ZM14.9117 3.48535C11.8869 3.48547 9.64041 5.66001 9.63725 8.59277C9.63425 11.5178 9.63725 14.4422 9.63725 17.3672C9.63725 17.641 9.63725 17.9168 9.68217 18.1826C10.1172 20.7516 12.1798 22.4584 14.9078 22.4824C16.7738 22.4994 18.6403 22.4873 20.5093 22.4873H65.6939C68.9469 22.4873 71.1519 20.3461 71.1519 17.2061V8.67871C71.1487 5.64291 68.9166 3.48828 65.7828 3.48828H40.4117V3.48535H14.9117Z" fill="black"/>
</svg>
