<svg width="82" height="28" viewBox="0 0 82 28" fill="none" xmlns="http://www.w3.org/2000/svg">
<path d="M22.3145 7.34473C25.4205 7.43532 30.2176 14.1239 23.0039 19.8486C18.6599 23.2925 10.1299 23.7451 10.1299 23.7451L6.73828 24.0205L6.83984 23.6943C6.83984 23.6943 7.38276 23.6245 7.50391 23.3047L8.53906 20.2637C11.843 20.2067 16.1809 19.8107 19.2539 18.3857C25.6689 15.4077 24.9397 10.0477 22.6787 8.2207C22.6337 8.16972 22.5888 8.11153 22.5508 8.06055C22.5123 7.93604 22.4724 7.81301 22.4316 7.69238L22.3145 7.34473Z" fill="black"/>
<path fill-rule="evenodd" clip-rule="evenodd" d="M59.1602 11.3721C61.691 11.3781 62.4834 12.3618 62.4834 14.2207C62.4764 16.2717 61.384 18.9051 60.585 19.9141C59.9502 20.7231 58.9892 21.1614 57.4023 21.2129L57.084 21.2178C54.5542 21.2108 53.7609 20.2269 53.7607 18.3682C53.7607 16.3102 54.8923 13.6008 55.6523 12.6748C56.3303 11.8509 57.3783 11.3721 59.1602 11.3721ZM58.8984 13.0127C58.2785 13.0067 57.6906 13.2815 57.3906 13.6904C56.3297 15.1023 55.9854 17.8115 55.9854 18.2207C55.9854 18.9997 56.3491 19.582 57.3711 19.582C57.9721 19.582 58.5525 19.3323 58.8535 18.9043C59.9133 17.4156 60.2587 14.7837 60.2588 14.375C60.2588 13.5951 59.9081 13.0129 58.8984 13.0127Z" fill="black"/>
<path d="M40.9258 11.4668C41.1875 11.4669 41.3984 11.5305 41.3984 11.7793C41.3984 11.8313 41.3734 11.9396 41.3604 12.0166L39.8584 18.2207C39.7954 18.4696 39.7695 18.6738 39.7695 18.8848C39.7698 19.4723 40.3632 19.5556 41.002 19.5557C42.1779 19.5557 42.4277 19.0696 42.6387 18.2207L44.0176 12.4766C44.0436 12.3556 44.0693 12.176 44.0693 12.042C44.0691 11.8373 43.9352 11.715 43.8203 11.665L43.8584 11.4736H45.8262C46.0812 11.4736 46.292 11.5378 46.292 11.7998C46.2919 11.851 46.2788 11.9716 46.2539 12.0225H46.2607L44.7598 18.2266C44.2998 20.1365 43.717 21.1904 40.708 21.1904C39.0473 21.1904 37.4759 20.9734 37.4756 19.5498C37.4756 19.1859 37.6226 18.6618 37.7246 18.2139L39.124 12.4697C39.162 12.3167 39.1758 12.208 39.1758 12.042C39.1756 11.8314 39.0476 11.7151 38.9258 11.665L38.9639 11.4668H40.9258Z" fill="black"/>
<path d="M74.9297 12.4688C74.8397 12.8777 74.6924 13.0566 74.1055 13.0566H72.3926L70.6553 20.1113C70.6163 20.2702 70.5908 20.417 70.5908 20.5449C70.5908 20.7489 70.7375 20.8709 70.8525 20.9219L70.8145 21.1201H68.7891C68.5392 21.1201 68.3292 21.057 68.3291 20.7822C68.3291 20.7303 68.3415 20.6223 68.3545 20.5713L70.2129 13.0566H68.5273C68.1503 13.0506 68.0539 13.3003 67.9639 13.4473H67.7676L68.0859 12.0986C68.2009 11.6 68.3037 11.5116 68.9365 11.5176H74.0928C74.7753 11.5175 74.9295 11.3702 75.0635 11.1084H75.2617L74.9297 12.4688Z" fill="black"/>
<path d="M65.1279 21.1143L65.1299 21.1016H65.1338L65.1279 21.1143Z" fill="black"/>
<path d="M66.5215 11.5049C66.7761 11.505 66.9812 11.5693 66.9814 11.8428C66.9814 11.9008 66.9681 11.9653 66.9551 12.0293L64.9678 20.1055C64.9298 20.2643 64.9043 20.4112 64.9043 20.5391C64.9043 20.743 65.051 20.865 65.166 20.916L65.1299 21.1016H63.1152C62.8664 21.1016 62.6555 21.0373 62.6553 20.7637C62.6553 20.7128 62.6677 20.604 62.6807 20.5527L64.668 12.4629C64.693 12.3478 64.7324 12.1502 64.7324 12.0732C64.7324 11.8693 64.5907 11.7483 64.4697 11.6973L64.5078 11.5049H66.5215Z" fill="black"/>
<path d="M54.3174 12.4375C54.2274 12.8464 54.0808 13.0253 53.4941 13.0254H51.7744L50.0371 20.0801C49.9991 20.239 49.9727 20.3857 49.9727 20.5137C49.9727 20.7175 50.1194 20.8395 50.2344 20.8906L50.1963 21.0889H48.1719C47.9219 21.0889 47.712 21.0249 47.7119 20.751C47.7119 20.6991 47.7234 20.5911 47.7363 20.54L49.5957 13.0254H47.9102C47.5332 13.0194 47.4367 13.269 47.3467 13.416H47.1484L47.4629 12.0674C47.5838 11.5689 47.6859 11.4804 48.3174 11.4863H53.4805C54.1634 11.4863 54.3182 11.3391 54.4521 11.0771H54.6494L54.3174 12.4375Z" fill="black"/>
<path fill-rule="evenodd" clip-rule="evenodd" d="M34.9082 11.4619C36.377 11.468 37.1688 12.0683 37.1689 13.877C37.1689 15.2249 36.6393 18.6433 35.0674 20.2783C34.4734 20.8923 33.6621 21.0713 32.3262 21.0713L32.3389 21.0586H28.7607C28.512 21.0586 28.301 21.0072 28.3008 20.7197C28.3008 20.6627 28.3141 20.5852 28.3271 20.5342L30.2881 12.4072C30.3141 12.3052 30.3516 12.1199 30.3516 12.0039C30.3514 11.7813 30.218 11.6913 30.0771 11.6533L30.1406 11.4619H34.9082ZM30.7744 19.4297H31.8604C32.9588 19.4296 33.406 19.1545 33.668 18.8037C34.0769 18.2407 34.9462 15.4676 34.9463 13.9346C34.9463 13.0086 34.3326 12.8994 33.8086 12.8994H32.3516V12.8936L30.7744 19.4297Z" fill="black"/>
<path d="M16.6484 7.32617C16.3685 7.70059 16.1427 8.11939 15.9922 8.58594L15.9258 8.78906C15.6248 9.90693 15.644 11.0059 15.708 12.3477C15.018 14.8715 14.1297 18.0916 13.8486 19.1328C12.0028 19.5677 10.1631 19.7981 8.57227 19.9131L12.4561 8.7832C12.5141 8.6232 12.5967 8.34209 12.5967 8.16309C12.5967 7.81809 12.3216 7.67812 12.0146 7.62012L12.1562 7.32617H16.6484Z" fill="black"/>
<path fill-rule="evenodd" clip-rule="evenodd" d="M22.8379 3.97949C22.334 4.4584 22.0079 4.79753 21.752 5.39746C21.1841 6.73943 23.2471 8.27256 22.1611 11.2305C21.401 13.2945 15.3379 16.2334 15.3379 16.2334C15.3379 16.2334 16.2 15.2624 16.123 13.5625C16.04 11.6145 15.8551 10.093 16.3281 8.70703C16.9482 6.89324 18.3475 5.90946 20.9023 5.1875C19.0625 6.3694 18.9863 8.52795 19.7461 10.0869C19.0701 6.54783 21.9399 4.52633 22.668 4.07617L22.8379 3.97949ZM21.6689 10.5605C20.7879 10.4139 19.4836 12.7717 18.5127 13.5566C19.7836 12.8927 21.0109 11.6525 21.6689 10.5605Z" fill="black"/>
</svg>
