<svg width="82" height="28" viewBox="0 0 82 28" fill="none" xmlns="http://www.w3.org/2000/svg">
<path d="M14.6289 22.9561C14.9219 22.9561 15.2416 23.1572 15.4365 23.4961C15.6984 23.9519 15.6327 24.4815 15.2891 24.6816C15.2071 24.7296 15.1155 24.7548 15.0215 24.7578H14.9756C14.6886 24.7478 14.3794 24.5477 14.1904 24.2188C13.9286 23.7618 13.995 23.2312 14.3389 23.0322C14.4279 22.9802 14.5269 22.9561 14.6289 22.9561Z" fill="black"/>
<path d="M5.04688 21.1357C5.3468 21.1359 5.66071 21.6238 5.76172 22.2646C5.86772 22.9356 5.7007 23.5213 5.3877 23.5713C5.37373 23.5733 5.35969 23.5742 5.34473 23.5742C5.04473 23.5742 4.73088 23.0853 4.62988 22.4443C4.52403 21.7735 4.69097 21.1886 5.00391 21.1396C5.01783 21.1367 5.03195 21.1357 5.04688 21.1357Z" fill="black"/>
<path d="M67.418 21.1631C67.6047 21.1631 67.7683 21.1978 67.9092 21.2666C68.0512 21.3366 68.1659 21.4327 68.2539 21.5537C68.3408 21.6747 68.3978 21.8128 68.4248 21.9688H68.1406C68.1116 21.8067 68.0313 21.6742 67.9033 21.5732C67.7745 21.4725 67.6116 21.4219 67.418 21.4219C67.244 21.4219 67.0965 21.462 66.9775 21.543C66.8596 21.624 66.7708 21.7342 66.7139 21.8721C66.6559 22.01 66.627 22.166 66.627 22.3389C66.627 22.5118 66.6559 22.6677 66.7139 22.8047C66.7709 22.9426 66.8596 23.0518 66.9775 23.1328C67.0965 23.2148 67.243 23.2549 67.418 23.2549C67.6358 23.2548 67.8067 23.1923 67.9316 23.0664C68.0566 22.9414 68.1379 22.7706 68.1729 22.5557H67.3223V22.3027H68.4492V23.4756H68.2109V23.0703C68.059 23.3662 67.7948 23.5136 67.417 23.5137C67.186 23.5137 66.9882 23.4605 66.8262 23.3555H66.8281C66.6652 23.2495 66.5429 23.1086 66.4609 22.9307C66.379 22.7527 66.3379 22.5548 66.3379 22.3389C66.3379 22.123 66.379 21.924 66.4609 21.7461C66.5429 21.5691 66.6651 21.4263 66.8281 21.3203C66.991 21.2155 67.1872 21.1631 67.418 21.1631Z" fill="black"/>
<path d="M40.5244 21.1621C40.6921 21.1622 40.8418 21.1959 40.9727 21.2627C41.1037 21.3297 41.21 21.4239 41.292 21.5439C41.374 21.6639 41.4291 21.8012 41.4561 21.9531H41.1729C41.1429 21.7941 41.0711 21.6664 40.9541 21.5674C40.8382 21.4695 40.6942 21.421 40.5254 21.4209C40.3564 21.4209 40.204 21.461 40.085 21.542C39.9671 21.623 39.8783 21.7332 39.8213 21.8711C39.7634 22.009 39.7344 22.165 39.7344 22.3379C39.7344 22.5108 39.7623 22.6668 39.8213 22.8037C39.8783 22.9417 39.967 23.0508 40.085 23.1318C40.204 23.2138 40.3514 23.2539 40.5254 23.2539C40.6993 23.2538 40.8596 23.1979 40.9785 23.085C41.0985 22.972 41.1694 22.8254 41.1934 22.6465H41.4727C41.4517 22.8105 41.4023 22.9588 41.3203 23.0898C41.2393 23.2218 41.1311 23.3244 40.9941 23.3994C40.8582 23.4744 40.7013 23.5117 40.5254 23.5117C40.2945 23.5117 40.0975 23.4584 39.9355 23.3535L39.9346 23.3545C39.7716 23.2485 39.6504 23.1076 39.5674 22.9297C39.4854 22.7517 39.4444 22.5538 39.4443 22.3379C39.4443 22.122 39.4855 21.9231 39.5674 21.7451C39.6494 21.5681 39.7706 21.4253 39.9346 21.3193C40.0975 21.2146 40.2937 21.1621 40.5244 21.1621Z" fill="black"/>
<path d="M31.0605 23.4766H30.7842V21.2002H31.0605V23.4766Z" fill="black"/>
<path d="M33.3613 23.0947V21.2002H33.6377V23.4766H33.3037L32.082 21.584V23.4766H31.8047V21.2002H32.1387L33.3613 23.0947Z" fill="black"/>
<path fill-rule="evenodd" clip-rule="evenodd" d="M36.377 23.4766H36.0811L35.8262 22.8252H34.7744L34.5195 23.4766H34.2236L35.1494 21.2002H35.4512L36.377 23.4766ZM34.875 22.5723H35.7256L35.3008 21.4883L34.875 22.5723Z" fill="black"/>
<path d="M38.5195 23.0947V21.2002H38.7959V23.4766H38.4619L37.2402 21.584V23.4766H36.9629V21.2002H37.2969L38.5195 23.0947Z" fill="black"/>
<path d="M42.3994 23.4766H42.1211V21.2002H42.3994V23.4766Z" fill="black"/>
<path fill-rule="evenodd" clip-rule="evenodd" d="M45.1377 23.4766H44.8418L44.5869 22.8252H43.5352L43.2803 23.4766H42.9844L43.9102 21.2002H44.2119L45.1377 23.4766ZM43.6357 22.5723H44.4863L44.0615 21.4883L43.6357 22.5723Z" fill="black"/>
<path d="M46.001 23.2236H47.1416V23.4766H45.7246V21.2002H46.001V23.2236Z" fill="black"/>
<path d="M49.3203 23.0654L49.8428 21.2002H50.1523L50.6748 23.0654L51.1973 21.2002H51.4873L50.8291 23.4766H50.5205L49.998 21.5762L49.4746 23.4766H49.166L48.5078 21.2002H48.7979L49.3203 23.0654Z" fill="black"/>
<path d="M53.6543 21.4531H52.3496V22.1611H53.5596V22.415H52.3496V23.2236H53.6406V23.4766H52.0732V21.2002H53.6543V21.4531Z" fill="black"/>
<path d="M54.5479 23.2236H55.6885V23.4766H54.2715V21.2002H54.5479V23.2236Z" fill="black"/>
<path d="M56.5635 23.2236H57.7041V23.4766H56.2871V21.2002H56.5635V23.2236Z" fill="black"/>
<path fill-rule="evenodd" clip-rule="evenodd" d="M59.1465 21.2002C59.4022 21.2003 59.5956 21.2591 59.7275 21.373C59.8605 21.489 59.9267 21.6364 59.9268 21.8193C59.9268 21.9233 59.9053 22.0157 59.8613 22.0947C59.8173 22.1757 59.7492 22.241 59.6592 22.291C59.781 22.338 59.8717 22.4071 59.9307 22.5C59.9906 22.593 60.0205 22.7031 60.0205 22.832C60.0204 23.0258 59.9551 23.1819 59.8232 23.2998C59.6923 23.4178 59.4971 23.4765 59.2393 23.4766H58.3008L58.3018 21.2002H59.1465ZM58.5791 23.2236H59.25C59.4179 23.2236 59.5431 23.1899 59.6221 23.123C59.703 23.0561 59.744 22.9578 59.7441 22.832C59.7441 22.7052 59.7029 22.608 59.6221 22.541C59.5421 22.474 59.417 22.4395 59.25 22.4395H58.5791V23.2236ZM58.5791 22.1865H59.1621C59.33 22.1865 59.4552 22.1538 59.5342 22.0889C59.6142 22.0239 59.6562 21.9333 59.6562 21.8193C59.6562 21.7055 59.615 21.6167 59.5342 21.5518C59.4532 21.4858 59.3291 21.4522 59.1621 21.4521H58.5791V22.1865Z" fill="black"/>
<path d="M62.2197 21.4531H60.915V22.1611H62.125V22.415H60.915V23.2236H62.2061V23.4766H60.6387V21.2002H62.2197V21.4531Z" fill="black"/>
<path d="M63.1133 23.4766H62.8359V21.2002H63.1133V23.4766Z" fill="black"/>
<path d="M65.4131 23.0947V21.2002H65.6895V23.4766H65.3555L64.1338 21.584V23.4766H63.8564V21.2002H64.1904L65.4131 23.0947Z" fill="black"/>
<path d="M13.1465 18.6367C13.8954 18.6367 14.6292 19.2168 14.9053 20.0947C15.2342 21.1426 14.7889 22.2169 13.9102 22.4971C13.7672 22.5421 13.6225 22.5625 13.4785 22.5625C12.7296 22.5624 11.9957 21.9824 11.7197 21.1045C11.3899 20.0566 11.8359 18.9821 12.7158 18.7031C12.8577 18.6581 13.0026 18.6367 13.1465 18.6367Z" fill="black"/>
<path fill-rule="evenodd" clip-rule="evenodd" d="M74.8721 10.4277C75.648 10.4278 76.3133 10.6135 76.8643 10.9814C77.415 11.3504 77.8333 11.8609 78.1152 12.5137C78.3952 13.1587 78.537 13.8863 78.54 14.6953V14.7598C78.537 15.5688 78.3952 16.2964 78.1152 16.9404C77.8323 17.5942 77.415 18.1047 76.8643 18.4727C76.3133 18.8426 75.648 19.0273 74.8721 19.0273C73.7801 19.0273 72.9396 18.6206 72.3516 17.8096V21.998H70.3682V10.6182H72.2734V11.7559C72.5564 11.334 72.9157 11.0084 73.3516 10.7764C73.7866 10.5444 74.2931 10.4277 74.8721 10.4277ZM74.415 12.0869C73.712 12.0869 73.1986 12.3221 72.8486 12.7891C72.4968 13.259 72.3223 13.9049 72.3223 14.7256C72.3223 15.5485 72.4967 16.1941 72.8486 16.6631C73.1996 17.1321 73.722 17.3662 74.415 17.3662C75.108 17.3662 75.6451 17.1321 75.998 16.6631C76.35 16.1941 76.5254 15.5486 76.5254 14.7256C76.5253 13.9048 76.3489 13.26 75.998 12.7891C75.6461 12.3211 75.118 12.0869 74.415 12.0869Z" fill="black"/>
<path d="M5.94824 17.3936C6.42224 17.5056 6.63392 18.337 6.41992 19.252C6.22298 20.0976 5.73106 20.7173 5.2832 20.7178C5.24626 20.7178 5.20977 20.714 5.17383 20.7051C4.69883 20.5931 4.49012 19.7607 4.70312 18.8467C4.90016 17.9998 5.39188 17.3809 5.83984 17.3809C5.87663 17.3809 5.91245 17.3847 5.94824 17.3936Z" fill="black"/>
<path fill-rule="evenodd" clip-rule="evenodd" d="M65.4404 10.4287C66.5843 10.4287 67.4445 10.6432 68.0225 11.0762C68.5994 11.5081 68.8886 12.1081 68.8887 12.877V18.8359H67.0146V17.8906C66.6798 18.3015 66.2999 18.5926 65.874 18.7676C65.4491 18.9415 64.9628 19.0273 64.417 19.0273C63.514 19.0273 62.7892 18.8091 62.2432 18.3721C61.6974 17.9341 61.4248 17.3267 61.4248 16.5459C61.4249 15.8291 61.6786 15.2729 62.1875 14.877C62.6975 14.482 63.4915 14.19 64.5742 14L66.9512 13.5732V13.0996C66.9512 12.7206 66.8308 12.4351 66.5898 12.2451C66.3488 12.0561 65.9701 11.9609 65.4551 11.9609C64.9734 11.961 64.5746 12.0665 64.2598 12.2773C63.9448 12.4883 63.7769 12.8093 63.7559 13.2412H61.8027C61.8138 12.3143 62.1598 11.6136 62.8418 11.1396C63.5248 10.6647 64.3905 10.4287 65.4404 10.4287ZM64.9375 15.3281C64.4225 15.4341 64.0475 15.5656 63.8105 15.7246C63.5746 15.8826 63.457 16.1355 63.457 16.4824C63.4571 16.8304 63.5736 17.0835 63.8105 17.2734C64.0475 17.4624 64.3955 17.5576 64.8584 17.5576C65.4354 17.5576 65.9299 17.3972 66.3389 17.0762C66.7476 16.7542 66.9521 16.2773 66.9521 15.6445V14.917L64.9375 15.3281Z" fill="black"/>
<path d="M33.9336 8.98926H32.6426C32.3588 8.9893 32.1571 9.05005 32.0371 9.16992C31.9161 9.29089 31.8555 9.48982 31.8555 9.7627V10.6162H33.9336V12.1494H31.8555V18.8359H29.8867V12.1494H28.4541V10.6162H29.8867V9.55762C29.8868 8.77679 30.0779 8.23383 30.4629 7.92188C30.8459 7.6109 31.4093 7.45605 32.1553 7.45605H33.9336V8.98926Z" fill="black"/>
<path d="M37.1455 18.8359H35.1777V10.6162H37.1455V18.8359Z" fill="black"/>
<path d="M43.334 10.4268C44.2579 10.4268 44.9744 10.7188 45.4844 11.3037C45.9934 11.8877 46.2471 12.6723 46.2471 13.6523V18.8359H44.2793V13.8887C44.2793 13.3618 44.1533 12.9438 43.9014 12.6328C43.6494 12.3218 43.2501 12.166 42.7041 12.166C42.2742 12.1661 41.8673 12.3079 41.4844 12.5928C41.1014 12.8768 40.8794 13.3414 40.8154 13.9844V18.8359H38.8311V10.6172H40.752V11.7393C41.056 11.3393 41.4245 11.0202 41.8545 10.7832C42.2844 10.5463 42.7781 10.4268 43.334 10.4268Z" fill="black"/>
<path d="M57.4248 10.4268C58.2746 10.4268 58.9447 10.7188 59.4316 11.3037C59.9196 11.8877 60.165 12.6723 60.165 13.6523V18.8359H58.1963V13.8877C58.1963 13.3718 58.0788 12.9556 57.8418 12.6396H57.8438C57.6078 12.3238 57.2577 12.1661 56.7959 12.166C56.334 12.166 55.9409 12.3312 55.584 12.6631C55.2271 12.995 55.0479 13.5457 55.0479 14.3145V18.835H53.0645V13.8867C53.0644 13.3708 52.9469 12.9546 52.71 12.6387C52.472 12.3227 52.1231 12.165 51.6611 12.165C51.1994 12.1651 50.8089 12.3303 50.457 12.6621C50.1051 12.994 49.9298 13.5447 49.9297 14.3125V18.834H47.9453V10.6172H49.8662V11.7549C50.1281 11.344 50.4614 11.0202 50.8652 10.7832C51.2702 10.5462 51.745 10.4268 52.292 10.4268C52.8388 10.4268 53.3488 10.564 53.7637 10.8379C54.1776 11.1118 54.4958 11.4907 54.7168 11.9756C55.0108 11.5118 55.3859 11.1374 55.8428 10.8535C56.2997 10.5697 56.828 10.4268 57.4248 10.4268Z" fill="black"/>
<path d="M13.4609 11.7578C14.0139 11.7579 14.5482 11.9198 14.9941 12.2598C16.2549 13.2188 16.3424 15.232 15.1904 16.7559C14.4474 17.7398 13.3693 18.2793 12.3594 18.2793C11.8055 18.2792 11.2721 18.1163 10.8262 17.7764C9.56522 16.8174 9.47706 14.8052 10.6279 13.2822C11.3719 12.2972 12.4509 11.7578 13.4609 11.7578Z" fill="black"/>
<path d="M8.17188 11.5977C8.40882 11.5977 8.63401 11.6526 8.83496 11.7686C9.73589 12.2906 9.81565 13.8443 9.01367 15.2383C8.39067 16.3211 7.41963 16.9902 6.59473 16.9902C6.35773 16.9902 6.13264 16.9344 5.93164 16.8174C5.03087 16.2952 4.951 14.7425 5.75293 13.3486C6.37594 12.2658 7.34793 11.5977 8.17188 11.5977Z" fill="black"/>
<path d="M5.0293 12.1162C5.05917 12.1162 5.08643 12.1219 5.11035 12.1338C5.36735 12.2638 5.2364 13.0497 4.81641 13.8896C4.43648 14.6495 3.9509 15.1922 3.67188 15.1924C3.64191 15.1924 3.6148 15.1868 3.59082 15.1748C3.50682 15.1328 3.46396 15.0184 3.45996 14.8564V14.7998C3.46796 14.4638 3.6178 13.9529 3.88477 13.4189C4.26457 12.6593 4.75023 12.1168 5.0293 12.1162Z" fill="black"/>
<path d="M22.9248 11.0645C23.2928 11.0645 23.6801 11.1651 24.0391 11.373C24.9868 11.9231 25.3819 13.0194 24.9199 13.8213C24.6329 14.3201 24.0833 14.5869 23.4814 14.5869C23.1147 14.5869 22.7279 14.488 22.3682 14.2803C21.4203 13.7294 21.0256 12.633 21.4873 11.8311C21.7733 11.3331 22.3228 11.0645 22.9248 11.0645Z" fill="black"/>
<path d="M17.8457 7.91211C18.1257 7.91211 18.4141 7.9437 18.7041 8.0127C20.3898 8.41078 21.4909 9.86778 21.1631 11.2666C20.8921 12.4255 19.7269 13.1815 18.376 13.1816C18.096 13.1816 17.8076 13.1491 17.5186 13.0811C15.8327 12.6831 14.7319 11.227 15.0586 9.82715C15.3296 8.66815 16.4957 7.91211 17.8457 7.91211Z" fill="black"/>
<path d="M9.00781 7.75879C9.1957 7.75881 9.34633 7.81007 9.44531 7.91797C9.84831 8.35596 9.25413 9.5642 8.11816 10.6172C7.26316 11.4102 6.34353 11.8877 5.76953 11.8877C5.58262 11.8877 5.432 11.8355 5.33203 11.7275C4.92903 11.2895 5.52516 10.0813 6.66016 9.03027C7.51615 8.23628 8.43481 7.75879 9.00781 7.75879Z" fill="black"/>
<path d="M36.2412 7.45508C36.7502 7.45508 37.1611 7.86865 37.1611 8.37988C37.1611 8.88965 36.7492 9.30371 36.2412 9.30371H36.0996C35.5906 9.30371 35.1787 8.88867 35.1787 8.37988C35.1787 7.86768 35.5916 7.45508 36.0996 7.45508H36.2412Z" fill="black"/>
<path d="M18.3975 4.35156C19.6805 4.35156 20.6685 4.76109 20.7715 5.41309C20.9002 6.23194 19.5817 7.12228 17.8262 7.40234C17.4663 7.45932 17.115 7.4863 16.7842 7.48633C15.5012 7.48633 14.5142 7.07776 14.4111 6.42578C14.2821 5.60582 15.6006 4.71459 17.3564 4.43555C17.7164 4.37856 18.0665 4.35158 18.3975 4.35156Z" fill="black"/>
<path d="M13.8115 4.10547C14.1575 4.11347 14.4097 4.21223 14.5107 4.40723C14.7762 4.91832 13.9022 5.90067 12.5615 6.60352C11.7525 7.02651 10.9585 7.25195 10.3965 7.25195C10.0267 7.25191 9.75739 7.15502 9.65137 6.95215C9.38538 6.44017 10.2597 5.4569 11.6006 4.75391C12.3876 4.34191 13.1608 4.11847 13.7188 4.10547H13.8115Z" fill="black"/>
<path d="M25.3213 5.46387C25.4533 5.46387 25.6067 5.48157 25.7646 5.51855C26.2183 5.62648 26.5521 5.85146 26.5137 6.02441C26.4877 6.13641 26.3085 6.19922 26.0615 6.19922C25.9297 6.1992 25.7779 6.18048 25.6191 6.14355C25.1661 6.03555 24.8311 5.8097 24.8711 5.6377C24.8972 5.52588 25.0747 5.46394 25.3213 5.46387Z" fill="black"/>
<path d="M22.4814 4.72461C22.6234 4.72461 22.7709 4.73207 22.9229 4.74707C23.8535 4.84207 24.5786 5.20567 24.543 5.55957C24.513 5.85457 23.9584 6.0498 23.2314 6.0498C23.0906 6.0498 22.9438 6.04234 22.792 6.02637C21.861 5.93237 21.1359 5.56784 21.1719 5.21484C21.2009 4.91888 21.7556 4.72466 22.4814 4.72461Z" fill="black"/>
</svg>
