<svg width="82" height="28" viewBox="0 0 82 28" fill="none" xmlns="http://www.w3.org/2000/svg">
<path fill-rule="evenodd" clip-rule="evenodd" d="M16.2142 5.56179C17.3532 3.78885 19.2454 1.98857 21.4983 2.28152C22.4563 2.39752 23.3117 3.08033 23.4437 4.03933C23.6175 5.67433 21.6809 8.07762 16.9261 8.23562C16.906 8.27761 15.6392 10.9345 15.0608 12.4563C17.7388 9.78642 19.3259 8.83794 20.8089 8.59695C21.6109 8.46717 22.8527 8.84981 22.8997 9.86062C22.9634 10.3796 22.6081 11.1425 22.3372 11.7483C21.7802 12.9713 21.0925 14.3056 20.5325 15.4895C20.1936 16.2603 19.5688 17.4297 19.8441 17.5833C19.9641 17.6413 20.2676 17.5209 20.6546 17.2669C21.0955 16.9779 21.6045 16.5269 22.0775 16.055C22.4274 15.707 22.7596 15.3512 23.0325 15.0452C23.0965 14.0622 23.4013 12.994 23.9593 11.969C25.4373 9.2601 28.1261 7.86771 29.9671 8.8616C30.068 8.91556 30.1622 8.97922 30.2562 9.04617C30.4722 9.21517 31.2046 9.85823 31.4466 10.9602C31.4566 11.0013 31.4785 11.1389 31.4944 11.2278C31.4944 11.2348 31.4974 11.2413 31.4974 11.2473C31.5444 11.5253 31.5667 11.8165 31.5657 12.1175C32.3216 12.0043 32.8473 11.2362 33.1683 10.5833C34.6713 6.83027 36.2528 3.30979 37.7308 2.68679C39.1405 2.09211 40.3392 2.70821 39.4056 4.01394C38.6186 5.11289 37.7578 6.31821 36.8528 7.8821C35.4038 10.3901 34.448 12.5856 34.22 14.6526C34.122 15.5439 33.7618 17.7457 35.3001 16.9993C35.6161 16.8333 35.9232 16.5859 36.2132 16.305C36.2082 16.195 36.2073 16.0811 36.2083 15.9632C36.2203 15.6212 36.2613 15.3019 36.3353 14.9749C36.6165 13.2085 39.7106 6.44245 40.9476 9.08132C41.1875 9.75026 40.8704 10.3823 40.5784 11.0012C39.8725 12.4502 39.0132 13.811 38.5032 15.5559C38.1843 16.6478 38.3124 17.2581 38.6224 17.3382C39.1564 17.4762 40.3933 16.1122 41.1233 15.2532C41.6783 12.3734 43.9342 8.58091 46.261 8.70046C47.285 8.75246 48.0404 9.18104 48.5364 9.88894C49.3224 7.46603 50.333 5.33678 51.179 3.89382C52 2.49189 53.3885 2.36864 53.9524 2.52663C54.6643 2.72669 54.4145 3.51447 53.9075 4.20144C50.8277 8.2993 49.5703 11.621 49.1282 14.012C49.1112 14.13 49.0907 14.2484 49.0677 14.3684C48.9857 14.8923 48.9421 15.3673 48.9261 15.7923C48.8671 17.4922 49.7498 17.3598 50.5198 16.7688C50.4799 16.4591 50.4844 16.1264 50.5403 15.7757C51.0063 12.8638 53.9102 8.22421 56.4661 8.35476C57.4851 8.40776 58.2021 8.83728 58.6321 9.54421C58.6611 9.47527 58.6901 9.40515 58.7191 9.33621C59.189 8.26238 59.9142 8.30848 60.4232 8.40945C60.896 8.50143 60.9103 9.04583 60.5726 9.52175C59.7066 11.1166 59.1709 12.5071 58.8499 13.676C58.8189 13.797 58.7883 13.9202 58.7523 14.0442C58.6263 14.5612 58.5416 15.0315 58.4886 15.4514C58.2527 17.3332 59.3723 16.9708 60.2513 16.2259L60.8118 15.7073C61.2848 13.1013 63.2348 8.66156 65.0618 8.69656C65.5816 8.72367 66.0717 8.9992 66.1019 9.51492C66.1729 10.4249 64.6833 11.6162 64.0843 12.7942C63.4833 13.8482 62.8874 15.2536 62.8714 16.4456C62.9295 17.2548 63.4409 17.6006 63.722 17.6848C64.922 18.0478 66.8145 15.5369 67.5745 13.1819C68.2535 11.081 68.6118 9.19353 68.8118 9.03054C69.5408 8.46059 71.0181 8.67422 70.7581 9.79519C70.2781 11.8602 69.5965 13.8542 68.9515 15.5022L68.9671 15.4954C68.1631 17.6603 67.2234 19.5364 66.8304 20.2034C67.3533 20.3264 67.9591 20.4627 68.3431 20.6096L68.3607 20.6175C70.1825 21.2444 71.8865 22.0991 72.6995 23.469L72.6966 23.468C73.3225 24.5199 71.9249 25.6168 70.9749 24.9573C70.5239 24.6513 70.0471 24.1065 69.5491 23.4495C68.0042 21.5546 66.8707 21.4019 66.2347 21.2229C66.1207 21.4339 65.5281 22.3817 65.3079 22.719C64.169 24.4919 62.2766 26.293 60.0228 26.0012C59.0649 25.8853 58.2086 25.2013 58.0774 24.2425C57.9025 22.6075 59.8394 20.2043 64.5931 20.0471C64.5931 20.0471 64.8911 19.4447 65.2571 18.6477C64.7152 18.9687 63.8406 19.218 62.4817 18.9661C61.9668 18.8701 61.4134 18.4475 61.0794 17.9016C60.9124 17.6387 60.8091 17.3414 60.7581 17.0335L60.3128 17.4759C57.1859 20.6917 56.6335 18.5624 56.7034 16.7854C54.4577 19.651 51.875 19.4461 50.8958 17.8616C48.0909 21.0135 47.352 18.8952 47.262 17.1272C44.8441 20.6129 41.5181 19.5552 41.053 16.9964C40.8901 17.2032 40.7331 17.3886 40.5901 17.5315C38.7293 19.4461 37.0043 19.4712 36.4192 17.6175C35.7694 18.3293 35.0196 18.9504 34.1878 19.2034C31.4409 19.6924 31.5201 15.8513 32.345 12.8743C32.0322 13.0851 31.7334 13.2173 31.4495 13.2913C31.3085 14.0382 31.0342 14.8119 30.6253 15.5637C29.1473 18.2727 26.4585 19.6651 24.6175 18.6721C23.8006 18.2312 23.2899 17.3934 23.1019 16.3626C22.0059 17.7096 20.307 19.387 18.887 18.845C17.7014 18.369 17.2516 17.6516 17.5735 15.8509C17.8356 14.3922 18.6932 12.7036 19.47 11.6087C19.887 10.9827 20.0797 10.567 20.0657 10.346C19.9824 9.05454 16.3817 12.9976 14.6067 17.5784C14.0468 19.0232 13.2526 19.0227 12.6526 19.0227C9.26668 19.0227 13.7646 9.64954 14.6917 8.07839C14.1687 7.95539 13.562 7.82012 13.178 7.67312L13.1614 7.66531C11.3434 7.03931 9.6395 6.18274 8.8255 4.81374C8.19996 3.76186 9.59727 2.66761 10.5472 3.32546C10.9981 3.63144 11.474 4.17535 11.972 4.83328C13.5169 6.72816 14.6514 6.8799 15.2874 7.05788C15.4017 6.84647 15.9942 5.89868 16.2142 5.56179ZM63.9691 21.137C63.3194 21.1581 60.655 21.4186 59.9778 23.2259C59.8669 23.5238 59.8553 23.9233 60.1321 24.1223C61.0631 24.6353 62.3316 23.4871 62.9056 22.7971C63.1416 22.5051 63.6251 21.6969 63.97 21.138L63.9691 21.137ZM46.3431 10.219C45.1472 10.1516 43.513 12.9191 43.3099 15.2698C43.1329 17.3038 43.8708 19.3474 46.2308 15.9065C46.2308 15.9065 46.8437 14.9914 47.1077 13.9885C47.5067 11.3575 47.0391 10.258 46.3431 10.219ZM28.5794 10.1184C27.6464 9.79943 26.3167 11.2013 25.6097 13.2493C24.8998 15.297 25.0813 17.2161 26.013 17.5354C26.945 17.8554 28.2757 16.4534 28.9837 14.4055C29.2017 13.7765 29.335 13.158 29.387 12.596C29.598 11.4751 29.2674 10.8263 29.0784 10.5403L29.0765 10.5374C29.0685 10.5244 29.0601 10.5133 29.0501 10.5003C29.0171 10.4523 28.9899 10.4168 28.9739 10.3948C28.8639 10.2638 28.7314 10.1704 28.5794 10.1184ZM56.6829 9.8782C55.3889 9.8092 53.3553 12.577 52.9202 14.929C52.5442 16.962 53.1622 19.0057 56.0462 15.5637C56.0566 15.551 56.7988 14.6417 57.1732 13.6468C57.8469 11.0165 57.4386 9.91662 56.6829 9.8782ZM21.389 4.1614C20.458 3.64878 19.1904 4.79666 18.6185 5.4866C18.3824 5.77879 17.897 6.58598 17.5521 7.14382V7.14578C18.2011 7.12478 20.8672 6.86493 21.5442 5.05593C21.6552 4.75995 21.6659 4.36137 21.389 4.1614Z" fill="black"/>
<path d="M72.1087 7.25027H71.8148V8.08523H71.6116V7.25027H71.3177V7.08328H72.1087V7.25027Z" fill="black"/>
<path d="M72.4808 7.08425L72.7884 7.73269L73.096 7.08425H73.3304V8.08523H73.1458V7.36062L72.8548 7.98367H72.721L72.4329 7.36062V8.08523H72.2474V7.08425H72.4808Z" fill="black"/>
<path d="M41.304 5.03445C41.784 4.92745 42.4233 5.19622 42.6673 5.58718C43.0853 6.28314 42.3186 7.01113 41.8216 7.42214C41.2907 7.84606 40.7329 7.92209 40.5208 7.15456L40.5159 7.13796C40.307 6.3751 40.4305 5.23275 41.304 5.03445Z" fill="black"/>
</svg>
