<svg width="82" height="28" viewBox="0 0 82 28" fill="none" xmlns="http://www.w3.org/2000/svg">
<path d="M27.6558 23.0361C27.6558 23.3121 27.7173 23.5584 27.8403 23.7754C27.9643 23.9913 28.1389 24.1602 28.3618 24.2842C28.5877 24.407 28.851 24.4688 29.1528 24.4688C29.4537 24.4687 29.718 24.4071 29.9429 24.2842C30.1676 24.1603 30.3414 23.9912 30.4634 23.7754C30.5874 23.5584 30.6479 23.3121 30.6479 23.0361V19.623H31.1245V23.0693C31.1245 23.423 31.0413 23.7397 30.8745 24.0186C30.7095 24.2966 30.4772 24.5157 30.1812 24.6777C29.8863 24.8366 29.5436 24.916 29.1528 24.916C28.7628 24.916 28.4195 24.8358 28.1235 24.6748C27.8265 24.5138 27.5952 24.2936 27.4292 24.0166C27.2634 23.7388 27.1802 23.423 27.1802 23.0693V19.623H27.6558V23.0361Z" fill="black"/>
<path fill-rule="evenodd" clip-rule="evenodd" d="M23.4937 19.5527C23.9317 19.5527 24.3197 19.6628 24.6567 19.8828C24.9957 20.1008 25.2616 20.4116 25.4546 20.8125C25.6476 21.2125 25.7446 21.6836 25.7446 22.2256C25.7446 22.7675 25.6476 23.2397 25.4546 23.6406C25.2616 24.0405 24.9957 24.3504 24.6567 24.5703C24.3197 24.7893 23.9316 24.8984 23.4937 24.8984C23.0547 24.8984 22.6656 24.7893 22.3267 24.5703C21.9898 24.3503 21.7247 24.0405 21.5317 23.6406C21.3398 23.2397 21.2446 22.7675 21.2446 22.2256C21.2446 21.6836 21.3398 21.2125 21.5317 20.8125C21.7247 20.4116 21.9908 20.1008 22.3296 19.8828C22.6685 19.6628 23.0567 19.5528 23.4937 19.5527ZM23.4937 19.999C23.1527 19.9991 22.8476 20.0877 22.5786 20.2637C22.3088 20.4396 22.0959 20.6936 21.938 21.0254C21.783 21.3574 21.7046 21.7576 21.7046 22.2256C21.7046 22.6915 21.783 23.0909 21.938 23.4229C22.094 23.7546 22.3068 24.0096 22.5757 24.1865C22.8456 24.3635 23.1507 24.4511 23.4937 24.4512C23.8356 24.4512 24.1417 24.3634 24.4106 24.1865C24.6816 24.0105 24.8953 23.7567 25.0513 23.4248C25.2073 23.0918 25.2837 22.6915 25.2817 22.2256C25.2817 21.7596 25.2053 21.3603 25.0493 21.0283C24.8933 20.6943 24.6796 20.4397 24.4106 20.2637C24.1417 20.0877 23.8356 19.999 23.4937 19.999Z" fill="black"/>
<path fill-rule="evenodd" clip-rule="evenodd" d="M57.0415 19.5527C57.4794 19.5528 57.8677 19.6629 58.2046 19.8828C58.5434 20.1008 58.8095 20.4117 59.0024 20.8125C59.1964 21.2125 59.2925 21.6836 59.2925 22.2256C59.2925 22.7675 59.1964 23.2397 59.0024 23.6406C58.8095 24.0405 58.5434 24.3503 58.2046 24.5703C57.8677 24.7893 57.4794 24.8984 57.0415 24.8984C56.6026 24.8984 56.2135 24.7893 55.8745 24.5703C55.5376 24.3504 55.2726 24.0405 55.0796 23.6406C54.8886 23.2397 54.7925 22.7675 54.7925 22.2256C54.7925 21.6836 54.8886 21.2125 55.0796 20.8125C55.2726 20.4116 55.5385 20.1008 55.8774 19.8828C56.2164 19.6628 56.6045 19.5527 57.0415 19.5527ZM57.0415 19.999C56.7005 19.999 56.3955 20.0877 56.1265 20.2637C55.8575 20.4397 55.6428 20.6934 55.4858 21.0254C55.3299 21.3574 55.2524 21.7576 55.2524 22.2256C55.2525 22.6915 55.3299 23.0909 55.4858 23.4229C55.6408 23.7548 55.8546 24.0096 56.1235 24.1865C56.3935 24.3634 56.6986 24.4512 57.0415 24.4512C57.3834 24.4511 57.6896 24.3635 57.9585 24.1865C58.2293 24.0106 58.4422 23.7566 58.5981 23.4248C58.7541 23.0918 58.8316 22.6915 58.8306 22.2256C58.8306 21.7596 58.7522 21.3603 58.5962 21.0283C58.4403 20.6945 58.2273 20.4396 57.9585 20.2637C57.6896 20.0877 57.3834 19.9991 57.0415 19.999Z" fill="black"/>
<path d="M20.0112 20.0508H17.4751V22.0098H19.7749V22.4375H17.4751V24.8281H16.9995V19.624H20.0112V20.0508Z" fill="black"/>
<path d="M36.3364 23.9873H36.3774V19.624H36.8442V24.8281H36.3823L33.3071 20.4697H33.2661V24.8281H32.7915V19.624H33.2515L36.3364 23.9873Z" fill="black"/>
<path fill-rule="evenodd" clip-rule="evenodd" d="M40.1313 19.624C40.6272 19.6241 41.0509 19.7277 41.4038 19.9336C41.7577 20.1406 42.0293 20.4373 42.2173 20.8232C42.4052 21.2091 42.4985 21.6721 42.4985 22.2129C42.4985 22.7579 42.4015 23.2272 42.2085 23.6182C42.0175 24.0071 41.7375 24.3067 41.3706 24.5146C41.0046 24.7226 40.5606 24.8281 40.0386 24.8281H38.5151V19.624H40.1313ZM38.9897 24.4014H40.0112C40.4591 24.4013 40.8334 24.3127 41.1343 24.1357C41.4361 23.9598 41.6621 23.7087 41.813 23.3818C41.9639 23.0549 42.0386 22.6648 42.0386 22.2129C42.0365 21.764 41.9629 21.3777 41.8159 21.0537C41.6699 20.7309 41.4525 20.4835 41.1646 20.3105C40.8786 20.1376 40.5249 20.0498 40.103 20.0498H38.9897V24.4014Z" fill="black"/>
<path fill-rule="evenodd" clip-rule="evenodd" d="M47.4956 24.8281H46.9976L46.4399 23.2598H44.2573L43.6997 24.8281H43.2017L45.0952 19.624H45.603L47.4956 24.8281ZM44.4087 22.833H46.2876L45.3657 20.2412H45.3306L44.4087 22.833Z" fill="black"/>
<path d="M51.5249 20.0508H49.8755V24.8281H49.4009V20.0508H47.7515V19.624H51.5249V20.0508Z" fill="black"/>
<path d="M64.272 23.9873H64.313V19.624H64.7808V24.8281H64.3179L61.2437 20.4697H61.2026V24.8281H60.7271V19.624H61.187L64.272 23.9873Z" fill="black"/>
<path d="M53.355 24.8262H52.8813V19.6221H53.355V24.8262Z" fill="black"/>
<path d="M20.7515 12.7129L20.7603 12.7383H26.0513V15.6016H17.2075V2.51367H20.7515V12.7129Z" fill="black"/>
<path d="M37.2798 5.36914H37.2505L37.2798 5.37793H31.4009V7.62695H36.7935V10.4893H31.4009V12.7383H37.2534V15.6016H27.8472V2.51465L28.1235 2.59766V2.51367H37.2798V5.36914Z" fill="black"/>
<path d="M45.6636 11.7422H45.7651L48.4497 2.51465H52.4624L48.1421 15.6016H43.2866L38.9663 2.51465H42.98L45.6636 11.7422Z" fill="black"/>
<path fill-rule="evenodd" clip-rule="evenodd" d="M65.0005 15.6016H61.1665L60.4106 13.0967H56.0942L55.3384 15.6016H51.5044L55.8247 2.51465H60.6802L65.0005 15.6016ZM56.8979 10.4385H59.6079L58.3032 6.11816H58.2017L56.8979 10.4385Z" fill="black"/>
</svg>
