<svg width="82" height="28" viewBox="0 0 82 28" fill="none" xmlns="http://www.w3.org/2000/svg">
<path d="M28.5869 18.1582C28.9799 18.1582 29.3055 18.2561 29.5625 18.4521C29.8194 18.6491 29.9884 18.916 30.0693 19.2529L29.6065 19.3965C29.5474 19.1467 29.4289 18.9552 29.251 18.8213C29.073 18.6883 28.8482 18.6201 28.5762 18.6201C28.3232 18.6201 28.1002 18.6724 27.9072 18.7773C27.7143 18.8823 27.5519 19.0233 27.4199 19.1982C27.2881 19.3751 27.1871 19.5741 27.1201 19.7959C27.0521 20.0179 27.0186 20.2493 27.0186 20.4873C27.0186 20.8541 27.1128 21.1426 27.3018 21.3516C27.4908 21.5605 27.7567 21.666 28.0977 21.666C28.2485 21.666 28.3971 21.6445 28.5459 21.6016C28.6949 21.5596 28.8329 21.4905 28.9619 21.3955C29.0899 21.2995 29.1991 21.1727 29.2891 21.0127C29.3712 20.8667 29.4291 20.6898 29.4639 20.4814H28.499L28.5606 20.0459H29.958L29.6787 22.0615H29.2539L29.2774 21.5283C29.2022 21.6398 29.1163 21.7353 29.0176 21.8135C28.8777 21.9234 28.7254 22.0037 28.5606 22.0537C28.3947 22.1037 28.2266 22.1279 28.0537 22.1279C27.7457 22.1279 27.477 22.0608 27.249 21.9268C27.0213 21.7928 26.8466 21.605 26.7236 21.3633C26.6006 21.1203 26.5391 20.8339 26.5391 20.5029C26.5391 20.1989 26.5857 19.906 26.6797 19.625C26.7737 19.3441 26.908 19.094 27.0869 18.874C27.2649 18.653 27.4804 18.4786 27.7344 18.3506C27.9872 18.2217 28.2712 18.1583 28.5869 18.1582Z" fill="black"/>
<path d="M63.9414 18.1582C64.3343 18.1582 64.6591 18.2562 64.916 18.4521C65.173 18.6491 65.3419 18.916 65.4229 19.2529L64.96 19.3965C64.901 19.1469 64.7832 18.9552 64.6055 18.8213C64.4276 18.6883 64.2025 18.6202 63.9307 18.6201C63.6777 18.6201 63.4547 18.6724 63.2617 18.7773C63.0687 18.8823 62.9064 19.0232 62.7744 19.1982C62.6425 19.3752 62.5426 19.574 62.4746 19.7959C62.4066 20.0179 62.3721 20.2493 62.3721 20.4873C62.3721 20.854 62.4665 21.1427 62.6553 21.3516C62.8443 21.5605 63.1102 21.666 63.4512 21.666C63.6022 21.666 63.7514 21.6446 63.9004 21.6016C64.0493 21.5596 64.1875 21.4905 64.3164 21.3955C64.4443 21.2995 64.5536 21.1726 64.6436 21.0127C64.7256 20.8667 64.7827 20.6897 64.8174 20.4814H63.8535L63.9141 20.0459H65.3125L65.0322 22.0615H64.6084L64.6318 21.5273C64.5565 21.6393 64.4702 21.7351 64.3711 21.8135C64.2311 21.9235 64.0791 22.0037 63.9141 22.0537C63.7481 22.1037 63.5802 22.1279 63.4072 22.1279C63.0993 22.1279 62.8315 22.0607 62.6035 21.9268C62.3756 21.7928 62.2001 21.6052 62.0772 21.3633C61.9542 21.1203 61.8936 20.8339 61.8936 20.5029C61.8936 20.199 61.9392 19.906 62.0332 19.625C62.1272 19.344 62.2624 19.094 62.4414 18.874C62.6194 18.6531 62.834 18.4786 63.0879 18.3506C63.3409 18.2216 63.6254 18.1582 63.9414 18.1582Z" fill="black"/>
<path d="M19.6611 18.6602H17.6182L17.4473 19.8887H19.2969L19.2373 20.3232H17.3858L17.1992 21.6289H19.2422L19.1817 22.0635H16.6543L17.1943 18.2256H19.7207L19.6611 18.6602Z" fill="black"/>
<path d="M23.7871 21.2646L24.2158 18.2256H24.6992L24.1602 22.0635H23.6426L22.2188 19.0176L21.792 22.0635H21.3076L21.8477 18.2256H22.3535L23.7871 21.2646Z" fill="black"/>
<path d="M32.3926 22.0635H31.9082L32.4483 18.2256H32.9317L32.3926 22.0635Z" fill="black"/>
<path d="M37.1738 21.2627L37.6025 18.2256H38.0869L37.5479 22.0635H37.0293L35.6065 19.0195L35.1797 22.0635H34.6943L35.2344 18.2256H35.7402L37.1738 21.2627Z" fill="black"/>
<path d="M42.8506 18.6602H40.8076L40.6367 19.8887H42.4863L42.4268 20.3232H40.5752L40.3887 21.6289H42.4316L42.3711 22.0635H39.8438L40.3838 18.2256H42.9102L42.8506 18.6602Z" fill="black"/>
<path d="M47.5039 18.6602H45.4609L45.29 19.8887H47.1397L47.0801 20.3232H45.2285L45.042 21.6289H47.085L47.0244 22.0635H44.4971L45.0371 18.2256H47.5635L47.5039 18.6602Z" fill="black"/>
<path fill-rule="evenodd" clip-rule="evenodd" d="M50.8242 18.2256C51.2172 18.2256 51.5074 18.3059 51.6943 18.4648C51.8811 18.6248 51.9756 18.8461 51.9756 19.1289C51.9755 19.3306 51.9353 19.5223 51.8545 19.7061C51.7735 19.8901 51.6438 20.043 51.4658 20.166C51.3528 20.2441 51.2167 20.3004 51.0586 20.3408L51.8486 22.0635H51.3145L50.5752 20.3955H49.8711L49.6348 22.0635H49.1504L49.6904 18.2256H50.8242ZM49.9326 19.9658H50.5274C50.8203 19.9658 51.0545 19.8958 51.2295 19.7568C51.4035 19.6168 51.4902 19.42 51.4902 19.167C51.4901 18.9793 51.4221 18.8484 51.2842 18.7725C51.1462 18.6975 50.9643 18.6602 50.7363 18.6602H50.1143L49.9326 19.9658Z" fill="black"/>
<path d="M54.3594 22.0635H53.875L54.415 18.2256H54.8984L54.3594 22.0635Z" fill="black"/>
<path d="M59.1416 21.2646L59.5703 18.2256H60.0537L59.5147 22.0635H58.9971L57.5732 19.0176L57.1465 22.0635H56.6621L57.2022 18.2256H57.708L59.1416 21.2646Z" fill="black"/>
<path d="M6.33009 12.8984C5.97315 13.7203 6.35119 14.3874 7.17286 14.3877H15.7441L15.2734 15.4736H4.33595C3.17021 15.4734 2.63667 14.5292 3.14161 13.3633L4.48536 10.2637H7.47364L6.33009 12.8984Z" fill="black"/>
<path d="M30.8994 8.09375C32.0641 8.094 32.5987 9.03828 32.0938 10.2031L29.8076 15.4717H26.8213L28.9053 10.6689C29.2623 9.84695 28.8835 9.17969 28.0615 9.17969H22.4727L19.7461 15.4668H16.7676L16.7617 15.4736L19.9619 8.09375H30.8994Z" fill="black"/>
<path d="M37.9795 14.3877H39.3164L42.0469 8.09473H45.0332L41.832 15.4736H36.9043C35.8893 15.4736 35.1507 14.9785 34.9287 14.1475L33.3057 8.09473H36.294L37.9795 14.3877Z" fill="black"/>
<path d="M46.5947 15.4736H43.6084L47.8955 5.58984H50.8818L46.5947 15.4736Z" fill="black"/>
<path d="M64.04 9.18164H55.4688C54.6469 9.1818 53.691 9.84811 53.334 10.6699L53.0859 11.2412H60.9756L60.5049 12.3271H52.6152L52.5791 12.4092L52.3672 12.8984C52.0103 13.7203 52.3883 14.3874 53.21 14.3877H61.7813L61.3106 15.4736H50.3731C49.2073 15.4734 48.6738 14.5292 49.1787 13.3633L50.5488 10.2041C51.0538 9.0391 52.4092 8.09473 53.5742 8.09473H64.5107L64.04 9.18164Z" fill="black"/>
<path d="M78.5781 9.18164H70.0068C69.185 9.18164 68.2292 9.84809 67.8721 10.6699L67.6963 11.0752L67.624 11.2412H75.5137L75.043 12.3271H67.1533L66.9053 12.8984C66.5483 13.7204 66.9261 14.3877 67.7481 14.3877H76.3193L75.8477 15.4736H64.9111C63.7451 15.4736 63.2108 14.5293 63.7158 13.3633L65.0869 10.2041C65.5919 9.03928 66.9465 8.09489 68.1113 8.09473H79.0488L78.5781 9.18164Z" fill="black"/>
<path d="M16.3633 8.09375C17.5283 8.09375 18.0636 9.03813 17.5586 10.2031L16.2139 13.3037H13.2266L14.3691 10.6689C14.7261 9.84697 14.3483 9.17972 13.5264 9.17969H4.95606L5.42677 8.09375H16.3633Z" fill="black"/>
</svg>
