<svg width="82" height="28" viewBox="0 0 82 28" fill="none" xmlns="http://www.w3.org/2000/svg">
<path d="M13.145 7.72852C15.2579 8.46155 16.8929 10.237 17.3999 12.4629C17.4279 12.5188 17.4563 12.5756 17.5132 12.6035L19.936 13.9844L17.5132 15.3643C17.4562 15.3933 17.3999 15.4499 17.3999 15.5059C16.8359 17.9296 14.92 19.8734 12.4683 20.4375C12.4123 20.4655 12.3556 20.4938 12.3276 20.5498L10.9468 22.9736L9.56592 20.5498C9.53792 20.4938 9.48032 20.4375 9.42432 20.4375C7.0016 19.8734 5.05667 17.9576 4.49365 15.5059C4.46465 15.4499 4.43637 15.3933 4.38037 15.3643L1.95654 13.9844L4.32471 12.6318C4.38071 12.6038 4.43701 12.5462 4.43701 12.4902C4.94413 10.2924 6.57903 8.48979 8.69189 7.75684L9.05908 9.72949C9.08708 9.81349 9.0308 9.89908 8.9458 9.95508C7.42389 10.6881 6.38135 12.2098 6.38135 14.0127C6.38138 16.5767 8.55106 18.6335 11.144 18.5215C13.4549 18.4084 15.3432 16.4926 15.4272 14.1816C15.5122 12.2938 14.4409 10.6878 12.8911 9.92676C12.8071 9.89876 12.7498 9.7852 12.7778 9.7002L13.145 7.72852Z" fill="black"/>
<path fill-rule="evenodd" clip-rule="evenodd" d="M37.3794 8.99707C38.1963 8.99709 38.9574 9.13796 39.6333 9.41992C40.3093 9.70092 40.9014 10.0962 41.3804 10.5752C41.8594 11.0822 42.2263 11.6463 42.5073 12.3223C42.7613 12.9992 42.9018 13.7312 42.9019 14.4922C42.9019 15.2811 42.7613 15.9862 42.5073 16.6621C42.2543 17.338 41.8593 17.9302 41.3804 18.4092C40.9014 18.9162 40.3093 19.2834 39.6333 19.5654C38.9573 19.8464 38.1963 19.9873 37.3794 19.9873C36.5625 19.9873 35.8014 19.8463 35.1245 19.5654C34.4485 19.2834 33.8564 18.8882 33.3774 18.4092C32.8984 17.9022 32.5325 17.3381 32.2505 16.6621C31.9965 15.9861 31.855 15.2532 31.855 14.4922C31.855 13.7312 31.9965 12.9992 32.2505 12.3223C32.5045 11.6463 32.8985 11.0542 33.3774 10.5752C33.8564 10.0683 34.4486 9.70089 35.1245 9.41992C35.8014 9.13803 36.5625 8.99707 37.3794 8.99707ZM37.3794 11.0547C35.4624 11.0547 33.941 12.6042 33.9409 14.4922C33.9409 16.3802 35.4914 17.9307 37.3794 17.9307C39.2673 17.9306 40.8169 16.3801 40.8169 14.4922C40.8168 12.6043 39.2953 11.0548 37.3794 11.0547Z" fill="black"/>
<path d="M27.1782 8.79785C27.5162 8.79785 27.8266 8.82681 28.1646 8.88281C28.4744 8.93979 28.784 9.02442 29.0659 9.10938C29.3467 9.2213 29.6291 9.33375 29.855 9.47461C30.108 9.61561 30.3347 9.7851 30.5317 9.9541L29.9116 11.1943C29.8267 11.3073 29.77 11.3906 29.686 11.4756C29.6011 11.5315 29.4884 11.5596 29.3765 11.5596C29.2635 11.5596 29.1503 11.5323 29.0093 11.4473C28.8683 11.3633 28.7271 11.3073 28.5581 11.1943C28.3892 11.1104 28.1925 11.0253 27.9956 10.9414C27.7416 10.8844 27.4885 10.8565 27.2065 10.8564C26.7275 10.8564 26.3883 10.968 26.1353 11.166C25.9093 11.363 25.7974 11.6454 25.7974 11.9834C25.7974 12.2091 25.8538 12.3777 25.9946 12.5176C26.1356 12.6585 26.3043 12.7998 26.5581 12.8848C26.7831 12.9977 27.0373 13.082 27.3472 13.167C27.6282 13.251 27.9385 13.3642 28.2485 13.4482C28.5585 13.5612 28.8409 13.6745 29.1509 13.8154C29.4605 13.9564 29.7142 14.1532 29.939 14.3779C30.165 14.6039 30.3624 14.8853 30.5034 15.1953C30.6443 15.5062 30.7006 15.8999 30.7007 16.3506C30.7007 16.8575 30.6157 17.3089 30.4468 17.7598C30.2778 18.2108 30.024 18.577 29.686 18.915C29.3472 19.2538 28.9535 19.5068 28.4468 19.6758C27.9679 19.8728 27.4036 19.958 26.7837 19.958C26.4458 19.958 26.1076 19.9297 25.7407 19.8447C25.3747 19.7607 25.0361 19.6765 24.7261 19.5645C24.3882 19.4235 24.0783 19.2813 23.7964 19.1123C23.5145 18.9444 23.2616 18.7463 23.0356 18.5215L23.7964 17.3369C23.8523 17.2531 23.9372 17.1683 24.021 17.1123C24.134 17.0553 24.2195 17.0273 24.3315 17.0273C24.4725 17.0274 24.6418 17.084 24.7827 17.168C24.9237 17.2529 25.1207 17.3646 25.2896 17.4775C25.4875 17.5905 25.7123 17.7041 25.9663 17.7881C26.2193 17.8731 26.5014 17.9287 26.8394 17.9287C27.2904 17.9287 27.6576 17.8161 27.9106 17.6191C28.1646 17.4222 28.3051 17.112 28.3052 16.6611C28.3052 16.4071 28.2479 16.21 28.1069 16.041C27.967 15.8722 27.7972 15.7594 27.5444 15.6475C27.3184 15.5345 27.0654 15.4493 26.7554 15.3643C26.4734 15.2803 26.163 15.1953 25.853 15.1113C25.5432 15.0273 25.2615 14.885 24.9517 14.7451C24.6707 14.6041 24.4166 14.4057 24.1626 14.1807C23.9096 13.9557 23.7401 13.6736 23.5991 13.3066C23.4583 12.9687 23.4019 12.5468 23.4019 12.0391C23.4019 11.6451 23.4868 11.2224 23.6558 10.8564C23.8247 10.4616 24.0504 10.1234 24.3882 9.81348C24.6982 9.50348 25.0928 9.27805 25.5718 9.08105C26.0227 8.91114 26.5584 8.79787 27.1782 8.79785Z" fill="black"/>
<path d="M48.7349 15.9004H48.7075C48.7075 16.5203 48.6219 17.0555 48.4819 17.5635C48.3409 18.0705 48.0872 18.493 47.8052 18.832C47.4952 19.1979 47.1008 19.4515 46.6499 19.6484C46.1989 19.8454 45.6351 19.9307 45.0151 19.9307C44.7342 19.9307 44.4523 19.902 44.1704 19.874C43.8885 19.846 43.6063 19.7894 43.2964 19.7334L43.3813 18.127C43.3813 17.986 43.437 17.9014 43.522 17.8164C43.606 17.7325 43.7475 17.7611 43.9165 17.7891C44.0015 17.7892 44.142 17.845 44.2827 17.874C44.4236 17.902 44.565 17.9297 44.7339 17.9297C44.9869 17.9297 45.1843 17.9014 45.3823 17.8164C45.5512 17.7604 45.7206 17.6474 45.8335 17.4785C45.9454 17.3096 46.0298 17.1123 46.1138 16.8584C46.1987 16.6054 46.1987 16.2956 46.1987 15.9287V8.96875H48.7349V15.9004Z" fill="black"/>
<path d="M58.063 10.9141H53.5815V13.4492H57.02V15.3096H53.5815V17.9023H58.063V19.8467H51.0181V8.96973H58.063V10.9141Z" fill="black"/>
<path fill-rule="evenodd" clip-rule="evenodd" d="M63.5854 8.96875C64.3754 8.96875 65.0518 9.05368 65.6147 9.22266C66.1787 9.39166 66.6303 9.61644 66.9683 9.89844C67.3342 10.1804 67.588 10.5191 67.729 10.9141C67.8979 11.308 67.9829 11.7311 67.9829 12.21C67.9829 12.5757 67.9262 12.8855 67.8423 13.1953C67.7573 13.5053 67.6154 13.7873 67.4185 14.0693C67.2215 14.3223 66.9957 14.5764 66.7427 14.7734C66.4607 14.9704 66.1509 15.1403 65.813 15.2803C65.9819 15.3652 66.1505 15.4789 66.2915 15.5908C66.4325 15.7038 66.574 15.873 66.686 16.043L69.0249 19.8174H66.7427C66.3199 19.8173 66.0103 19.6496 65.8413 19.3389L64.0366 16.1826C63.9528 16.0419 63.8681 15.9579 63.7563 15.873C63.6434 15.8171 63.502 15.7891 63.3052 15.7891H62.5718V19.8467H60.0356V8.96875H63.5854ZM62.5718 14.0977H63.5854C63.9242 14.0977 64.2345 14.0419 64.4595 13.957C64.6855 13.873 64.9112 13.7598 65.0522 13.5908C65.1932 13.4498 65.3052 13.2526 65.3901 13.0547C65.4461 12.8578 65.5024 12.6318 65.5024 12.3789C65.5024 11.9 65.3338 11.5339 65.0239 11.252C64.7139 10.97 64.2344 10.8564 63.5854 10.8564H62.5718V14.0977Z" fill="black"/>
<path d="M71.8149 8.96875C71.9838 8.96875 72.0689 8.99606 72.1528 8.99609C72.2378 8.99609 72.2941 9.02471 72.3501 9.05371C72.407 9.08165 72.4632 9.10921 72.519 9.16504L72.7173 9.36328L77.9019 15.9004C77.8739 15.7034 77.8742 15.4773 77.8452 15.2803C77.8452 15.0835 77.8169 14.8867 77.8169 14.7178V8.96875H80.0435V19.8174H78.7192C78.5224 19.8174 78.3533 19.7893 78.2124 19.7334C78.0714 19.6764 77.9579 19.5645 77.8169 19.3945L72.6597 12.9131C72.6877 13.1101 72.688 13.2805 72.688 13.4775C72.688 13.6465 72.7173 13.8154 72.7173 13.9844V19.8174H70.4897V8.96875H71.8149Z" fill="black"/>
<path d="M12.4683 7.64453C12.4962 7.67248 12.4966 7.72829 12.4966 7.78516L10.9458 16.4365L9.396 7.78516C9.396 7.72841 9.39636 7.70141 9.42529 7.64453L10.9458 5.02344L12.4683 7.64453Z" fill="black"/>
</svg>
